<svg width="901" height="518" viewBox="0 0 901 518" fill="none" xmlns="http://www.w3.org/2000/svg">
<g clip-path="url(#clip0_4644_7340)">
<path fill-rule="evenodd" clip-rule="evenodd" d="M325.89 192.679C266.59 132.529 164.18 174.519 164.18 258.979C164.18 343.439 266.59 385.439 325.89 325.289L391.25 258.979L325.89 192.679ZM450.01 199.389L385.48 133.939C273.64 20.4794 80.5 99.6794 80.5 258.989C80.5 418.299 273.64 497.499 385.49 384.049L450.02 318.599L514.54 384.049C626.38 497.499 819.53 418.309 819.53 258.989C819.53 99.6694 626.39 20.4794 514.54 133.929L450.02 199.379L450.01 199.389ZM508.77 258.989L574.13 325.299C633.43 385.449 735.84 343.459 735.84 258.989C735.84 174.519 633.43 132.529 574.13 192.689L508.77 258.989Z" fill="#111111" stroke="#333333" stroke-width="11" stroke-dasharray="1 2"/>
<path d="M525.43 336.92L358.6 165.37C348.72 155.21 337.98 147.02 326.7 140.65" stroke="#038E43" stroke-width="13"/>
<path d="M703 384.859C682.74 395.439 668.56 398.499 639.26 396.019" stroke="#038E43" stroke-width="13"/>
<path d="M769.39 208.15C778.68 228.38 782.07 253.5 778.39 282.73" stroke="#038E43" stroke-width="13"/>
<path d="M623.92 124.361C649.28 121.241 674.8 123.511 697 134.021" stroke="#038E43" stroke-width="13"/>
<path d="M380.52 331.881L522.92 185.471" stroke="#038E43" stroke-width="13"/>
<path d="M238.99 394.64C267.55 398.82 297.64 394.3 324.71 379.24" stroke="#038E43" stroke-width="13"/>
<path d="M122.77 277.369C126.94 308.199 141.27 336.099 161.16 355.769" stroke="#038E43" stroke-width="13"/>
<path d="M250.19 124.66C218.25 126.92 188.41 137.55 165.51 158.98" stroke="#038E43" stroke-width="13"/>
<path d="M170.86 352.879L178.66 359.219C181.27 361.339 181.9 363.769 180.18 365.829C178.56 367.769 176.12 367.929 173.96 366.319L173.84 366.469C176.14 368.519 176.54 371.179 174.74 373.369C172.48 376.079 169.34 376.059 165.96 373.299L158.76 367.439L170.86 352.869V352.879ZM167.73 370.579C169.18 371.769 170.56 371.729 171.55 370.509C172.53 369.349 172.26 368.039 170.8 366.869L167.09 363.859L164.01 367.559L167.72 370.569L167.73 370.579ZM172.38 364.389C173.64 365.419 175.14 365.279 176.06 364.169C176.92 363.159 176.7 361.829 175.57 360.919L172 358.009L168.98 361.629L172.39 364.399L172.38 364.389Z" fill="white"/>
<path d="M183.96 363.45L187.52 365.6L181.42 375.48C179.94 377.87 180.22 379.9 182.69 381.39C185.15 382.88 187.13 382.28 188.64 379.81L194.73 369.94L198.29 372.09L192.11 382.12C189.38 386.54 185.17 386.77 180.95 384.22C176.91 381.77 175.08 377.89 177.8 373.46L183.98 363.43H183.96V363.45Z" fill="white"/>
<path d="M203.99 374.63L195.69 391.61L191.94 389.82L200.24 372.84L203.99 374.63Z" fill="white"/>
<path d="M206.17 375.75L210.06 377.23L204.38 391.81L213.15 395.16L211.98 398.18L199.33 393.35L206.18 375.75H206.16H206.17Z" fill="white"/>
<path d="M219.79 380.93L227.17 382.71C232.49 383.99 235.96 387.85 234.42 394.16C232.79 400.76 227.95 402.32 222.66 401.05L215.28 399.27L219.78 380.93H219.79ZM230.23 393.16C231.29 388.8 229.37 386.57 226.26 385.82L223.07 385.05L220.11 397.09L223.3 397.86C226.47 398.63 229.2 397.33 230.23 393.15V393.16Z" fill="white"/>
<path d="M322.72 369.26L335.98 359.92L337.87 362.55L332.96 366.01L342.12 378.75L338.71 381.15L329.55 368.43L324.6 371.92L322.71 369.29V369.27L322.72 369.26Z" fill="white"/>
<path d="M336.66 359.239L347.36 349.539L349.58 351.929L341.96 358.849L344.92 362.049L351.76 355.829L353.91 358.149L347.07 364.369L350.41 367.989L358.02 361.089L360.23 363.479L349.56 373.169L336.69 359.259H336.67L336.66 359.239Z" fill="white"/>
<path d="M357.01 357.691L359.88 354.821C361.51 356.171 363.51 355.821 365.45 353.871C367.26 352.091 367.68 350.481 366.51 349.351C365.46 348.341 363.95 349.131 362.16 350.301L360.68 351.291C357.95 353.121 354.77 354.931 351.75 352.001C349.4 349.701 349.94 346.071 353.48 342.501C356.92 339.041 360.78 338.621 363.85 341.491L361.02 344.331C359.43 342.891 357.47 343.141 355.79 344.841C354.12 346.521 353.74 348.091 354.76 349.101C355.88 350.191 357.45 349.351 359.23 348.171L360.9 347.081C363.58 345.311 366.55 343.581 369.31 346.271C372 348.891 371.36 352.571 367.68 356.271C363.85 360.121 359.85 360.671 356.97 357.731L357 357.701L357.01 357.691Z" fill="white"/>
<path d="M359.74 336.8L371.16 325.32L373.5 327.59L369.27 331.84L380.52 342.8L377.57 345.75L366.32 334.77L362.05 339.05L359.71 336.78V336.8H359.74Z" fill="white"/>
<path d="M520.95 175.64L527.22 169.35C529.66 166.89 532.22 166.6 534.15 168.5C535.92 170.22 535.89 172.68 534.45 174.36L534.57 174.48C536.24 173.02 537.57 172.96 539.52 174.3L543.75 177.21L541.02 179.96L537.76 177.64C536.24 176.55 535.55 176.69 534.02 178.21L531.56 180.69L536 185.02L533.34 187.7L520.97 175.64V175.66L520.95 175.64ZM532.38 176.05C533.63 174.79 533.66 173.2 532.42 171.99C531.28 170.87 529.78 170.98 528.49 172.26L525.72 175.05L529.59 178.84L532.36 176.05H532.38Z" fill="white"/>
<path d="M532.8 163.52L542.3 154.43L544.37 156.55L537.6 163.03L540.37 165.87L546.45 160.05L548.46 162.13L542.38 167.95L545.51 171.17L552.27 164.71L554.34 166.83L544.85 175.91L532.79 163.54V163.52H532.8Z" fill="white"/>
<path d="M544.49 152.329L547.41 149.939L556.57 160.919L563.16 155.519L565.05 157.789L555.54 165.579L544.49 152.339V152.329Z" fill="white"/>
<path d="M556.54 142.729L567.58 135.529L569.22 137.989L561.35 143.129L563.55 146.429L570.62 141.819L572.22 144.219L565.15 148.829L567.63 152.559L575.48 147.439L577.12 149.899L566.11 157.089L556.56 142.749L556.54 142.729Z" fill="white"/>
<path d="M577.09 149.74L575.27 131.48L579.47 129.42L593.17 141.89L589.57 143.64L586.47 140.65L580.04 143.79L580.58 148.04L577.09 149.75V149.74ZM584.24 138.51L582.04 136.39C580.94 135.35 579.87 134.26 578.8 133.15L578.64 133.23C578.88 134.76 579.09 136.29 579.28 137.85L579.65 140.76L584.23 138.52L584.24 138.51Z" fill="white"/>
<path d="M590.84 136.91L594.36 135.71C595.13 137.47 596.9 137.98 599.29 137.17C601.5 136.45 602.48 135.3 602.01 133.92C601.57 132.66 600.01 132.7 598.08 132.95L596.48 133.16C593.49 133.56 590.16 133.75 588.91 130.17C587.93 127.36 589.86 124.61 594.21 123.12C598.44 121.68 601.75 122.89 603.07 126.46L599.61 127.65C598.9 125.85 597.2 125.25 595.14 125.94C593.1 126.64 592.12 127.77 592.56 129C593.02 130.34 594.65 130.28 596.58 130.04L598.39 129.82C601.31 129.45 604.43 129.24 605.58 132.54C606.7 135.76 604.66 138.5 600.17 140.04C595.47 141.65 591.99 140.49 590.84 136.94V136.91Z" fill="white"/>
<path d="M604.93 120.159L617.86 117.439L618.47 120.309L609.26 122.249L610.09 126.119L618.35 124.379L618.95 127.189L610.69 128.929L611.63 133.299L620.82 131.359L621.43 134.229L608.53 136.949L604.92 120.149H604.95H604.93V120.159Z" fill="white"/>
<path d="M706.18 128.93L712.19 132.31C716.52 134.74 718.6 138.98 715.66 144.13C712.58 149.51 707.95 149.67 703.63 147.26L697.62 143.88L706.18 128.93ZM712.25 142.22C714.27 138.67 713.17 136.25 710.62 134.81L708.01 133.35L702.38 143.16L704.99 144.62C707.57 146.07 710.29 145.62 712.24 142.2L712.25 142.22Z" fill="white"/>
<path d="M722.92 138.711L733.56 146.491L731.79 148.871L724.21 143.331L721.83 146.511L728.63 151.481L726.91 153.791L720.11 148.821L717.43 152.411L724.99 157.931L723.22 160.311L712.61 152.551L722.91 138.721L722.92 138.711Z" fill="white"/>
<path d="M736.29 148.75L742 154.03C744.72 156.55 745.38 159.76 742.8 162.5C740.37 165.08 736.91 164.74 734.13 162.16L731.3 159.55L727.22 163.87L724.45 161.31L736.31 148.76L736.29 148.75ZM735.45 159.77C736.88 161.09 738.55 161.41 739.88 160C741.24 158.56 740.8 156.95 739.36 155.62L737.02 153.46L733.1 157.6L735.44 159.76H735.46L735.45 159.77Z" fill="white"/>
<path d="M748.97 160.891L751.43 163.751L740.48 172.991L746.03 179.441L743.76 181.351L735.75 172.031L748.97 160.891Z" fill="white"/>
<path d="M750.7 175.95C755.38 172.86 760.15 173.84 763.12 178.25C766.08 182.64 765.17 187.39 760.5 190.48C755.82 193.57 751.04 192.63 748.05 188.2C745.07 183.8 746.02 179.04 750.7 175.96V175.95ZM750.55 186.55C752.21 189.01 754.95 189.45 758.31 187.23C761.6 185.05 762.27 182.32 760.63 179.88C758.97 177.42 756.19 177.01 752.88 179.18C749.52 181.39 748.88 184.09 750.53 186.55H750.55Z" fill="white"/>
<path d="M769.77 189.839L768.27 192.199C766.94 194.209 766.19 195.329 765.27 196.579L765.35 196.739C766.91 196.739 768.3 196.809 770.81 196.949L773.46 197.139L775.32 200.819L763.11 199.789L756.93 202.859L755.21 199.479L761.41 196.389L767.81 186.029L769.74 189.819V189.839H769.77Z" fill="white"/>
<path d="M128.861 263.154C128.674 260.164 126.796 258.129 122.809 258.378C118.672 258.636 117.214 260.929 117.397 263.87L117.585 266.885L129.049 266.17L128.861 263.154ZM132.278 269.796L114.833 270.885L114.399 263.932C114.086 258.922 116.557 254.815 122.563 254.441C128.843 254.049 131.533 257.859 131.844 262.843L132.278 269.796Z" fill="white"/>
<path d="M131.366 251.88L113.949 250.408L115.069 237.146L118.055 237.399L117.256 246.854L121.262 247.192L121.979 238.708L124.89 238.954L124.173 247.438L128.702 247.821L129.498 238.391L132.484 238.643L131.366 251.88Z" fill="white"/>
<path d="M133.958 231.938L115.471 234.004L116.431 230.049L124.076 229.463C126.358 229.271 128.664 229.086 130.958 228.949L130.999 228.779L125.081 225.107L118.604 221.095L119.54 217.236L135.036 227.497L133.958 231.938Z" fill="white"/>
<path d="M137.114 220.135L120.882 213.652L125.818 201.293L128.6 202.404L125.081 211.216L128.815 212.707L131.973 204.799L134.686 205.883L131.528 213.79L135.748 215.476L139.258 206.687L142.041 207.798L137.114 220.135Z" fill="white"/>
<path d="M143.05 205.881L127.68 197.557L129.5 194.197L142.235 201.094L146.337 193.519L148.972 194.946L143.05 205.881Z" fill="white"/>
<path d="M154.238 187.819C151.168 192.253 146.324 193.152 141.664 189.925C137.004 186.698 136.161 181.862 139.231 177.428C142.288 173.014 147.125 172.081 151.785 175.308C156.445 178.535 157.323 183.364 154.238 187.819ZM143.924 186.661C147.27 188.978 150.048 188.563 151.754 186.099C153.46 183.636 152.871 180.889 149.525 178.572C146.24 176.298 143.407 176.705 141.715 179.148C140.01 181.612 140.64 184.386 143.924 186.661Z" fill="white"/>
<path d="M160.442 178.661L147.276 167.164L152.45 161.24C154.914 158.418 158.152 157.633 161.03 160.146C163.738 162.511 163.514 165.995 160.984 168.891L158.422 171.825L162.955 175.784L160.442 178.661ZM156.391 170.051L158.51 167.625C159.807 166.139 160.064 164.441 158.597 163.16C157.092 161.846 155.463 162.345 154.165 163.831L152.046 166.257L156.391 170.051Z" fill="white"/>
<path d="M255.735 134.674L255.872 117.195L263.737 117.257C267.483 117.287 270.189 119.231 270.159 123.051C270.131 126.646 267.343 128.747 263.497 128.717L259.602 128.686L259.555 134.704L255.735 134.674ZM259.623 125.99L262.844 126.015C264.817 126.03 266.273 125.118 266.288 123.17C266.304 121.173 264.862 120.262 262.89 120.247L259.669 120.222L259.623 125.99Z" fill="white"/>
<path d="M272.517 134.921L273.42 117.465L277.235 117.662L276.487 132.125L285.091 132.57L284.936 135.563L272.517 134.921Z" fill="white"/>
<path d="M289.673 136.262L285.855 135.375L296.207 119.836L300.804 120.904L303.44 139.461L299.499 138.545L299.021 134.204L291.992 132.571L289.673 136.262ZM293.656 129.933L298.666 131.097L298.33 128.02C298.147 126.49 298.019 124.948 297.89 123.406L297.72 123.366C296.919 124.718 296.093 126.064 295.243 127.405L293.656 129.933Z" fill="white"/>
<path d="M312.508 129.718C311.844 131.469 311.134 133.203 310.448 134.945L307.93 141.333L304.492 139.978L310.901 123.717L314.827 125.264L316.494 133.973C316.813 135.682 317.119 137.359 317.393 139.319L317.565 139.36C318.232 137.53 318.846 135.973 319.459 134.417L321.959 128.075L325.443 129.448L319.034 145.71L315.201 144.199L313.718 136.046C313.336 134.017 312.978 131.997 312.665 129.726L312.508 129.718Z" fill="white"/>
<path d="M528.078 351.053C524.266 347.09 524.346 342.069 528.51 338.063C532.674 334.057 537.677 334.189 541.489 338.152C545.283 342.096 545.24 347.119 541.076 351.125C536.911 355.131 531.908 355.034 528.078 351.053ZM531.316 340.98C528.326 343.856 528.18 346.716 530.298 348.918C532.416 351.119 535.279 351.085 538.269 348.208C541.205 345.384 541.369 342.471 539.269 340.288C537.151 338.086 534.251 338.156 531.316 340.98Z" fill="white"/>
<path d="M537.763 360.111L549.307 346.537L556.501 352.656C558.906 354.701 559.453 357.004 557.821 358.924C556.287 360.727 553.985 360.841 551.999 359.286L551.883 359.422C553.992 361.382 554.342 363.918 552.61 365.955C550.466 368.475 547.517 368.407 544.395 365.752L537.763 360.111ZM542.709 360.308L546.122 363.21C547.46 364.348 548.741 364.335 549.697 363.21C550.621 362.124 550.395 360.896 549.057 359.758L545.644 356.856L542.709 360.308ZM547.425 354.762L550.567 357.433C551.73 358.423 553.13 358.31 554.004 357.282C554.812 356.332 554.639 355.082 553.592 354.191L550.295 351.387L547.425 354.762Z" fill="white"/>
<path d="M557.998 376.654C553.806 373.721 552.679 370.136 554.96 367.009L558.088 369.199C557.075 370.913 557.72 372.7 559.847 374.189C561.793 375.581 563.351 375.708 564.227 374.457C565.015 373.33 564.041 372.059 562.668 370.601L561.523 369.396C559.391 367.159 557.205 364.511 559.467 361.278C561.233 358.754 564.709 358.67 568.589 361.384C572.343 364.011 573.345 367.508 571.146 370.785L568.059 368.625C569.149 366.933 568.617 365.163 566.781 363.879C564.967 362.609 563.43 362.497 562.656 363.602C561.81 364.812 562.847 366.128 564.219 367.585L565.502 368.949C567.571 371.142 569.634 373.611 567.562 376.573C565.533 379.472 562.003 379.456 557.998 376.654Z" fill="white"/>
<path d="M568.03 382.897L576.734 367.348L588.573 373.975L587.081 376.641L578.64 371.916L576.638 375.492L584.213 379.732L582.758 382.331L575.184 378.091L572.921 382.134L581.339 386.846L579.847 389.512L568.03 382.897Z" fill="white"/>
<path d="M583.729 391.434L590.603 374.994L599.058 378.529C602.346 379.904 603.61 382.226 602.53 384.809C601.548 387.158 599.169 388.095 596.997 387.352L596.928 387.517C598.983 388.541 599.536 389.793 598.988 392.158L597.797 397.316L594.11 395.775L595.094 391.771C595.572 389.902 595.165 389.291 593.122 388.436L589.787 387.042L587.322 392.937L583.729 391.434ZM590.858 384.482L594.592 386.043C596.283 386.75 597.829 386.155 598.516 384.511C599.154 382.984 598.49 381.603 596.752 380.876L593.018 379.315L590.858 384.482Z" fill="white"/>
<path d="M606.335 399.868L604.713 380.973L608.719 382.054L609.116 389.861C609.251 392.192 609.38 394.547 609.46 396.889L609.632 396.935L613.528 391L617.787 384.503L621.695 385.558L610.832 401.082L606.335 399.868Z" fill="white"/>
<path d="M621.025 403.38L623.135 385.686L636.608 387.292L636.246 390.325L626.641 389.18L626.156 393.25L634.775 394.277L634.423 397.235L625.803 396.207L625.254 400.808L634.834 401.95L634.473 404.983L621.025 403.38Z" fill="white"/>
<path d="M718.703 385.498C713.971 388.298 709.102 387.068 706.158 382.096C703.215 377.123 704.493 372.284 709.225 369.484C713.935 366.696 718.813 367.891 721.756 372.864C724.699 377.837 723.457 382.684 718.703 385.498ZM709.642 380.034C711.755 383.605 714.505 384.403 717.134 382.847C719.763 381.291 720.386 378.496 718.273 374.925C716.198 371.42 713.4 370.591 710.793 372.134C708.165 373.69 707.567 376.529 709.642 380.034Z" fill="white"/>
<path d="M730.686 377.235L718.668 364.078L724.589 358.67C727.408 356.095 730.779 355.671 733.406 358.546C735.878 361.253 735.251 364.756 732.356 367.4L729.424 370.078L733.562 374.608L730.686 377.235ZM727.57 368.049L729.995 365.834C731.48 364.477 731.935 362.786 730.595 361.32C729.222 359.817 727.514 360.136 726.029 361.492L723.604 363.707L727.57 368.049Z" fill="white"/>
<path d="M744.15 364.761L731.229 352.49L740.572 342.651L742.787 344.755L736.126 351.77L739.098 354.592L745.076 348.297L747.235 350.348L741.258 356.643L744.617 359.833L751.261 352.837L753.476 354.941L744.15 364.761Z" fill="white"/>
<path d="M756.234 351.798L742.124 340.916L747.72 333.659C749.897 330.837 752.466 330.215 754.684 331.925C756.7 333.479 756.991 336.019 755.713 337.927L755.854 338.035C757.374 336.314 758.726 336.103 760.87 337.242L765.546 339.724L763.106 342.889L759.492 340.905C757.809 339.961 757.113 340.196 755.761 341.95L753.553 344.812L758.613 348.714L756.234 351.798ZM751.356 343.118L753.828 339.912C754.947 338.461 754.771 336.814 753.36 335.726C752.049 334.715 750.544 335.001 749.393 336.492L746.921 339.697L751.356 343.118Z" fill="white"/>
<path d="M769.619 333.278L767.668 336.766L755.382 322.227L757.73 318.027L776.65 320.702L774.638 324.301L770.251 323.54L766.661 329.962L769.619 333.278ZM764.548 327.585L767.107 323.008L763.998 322.465C762.449 322.211 760.902 321.9 759.355 321.59L759.268 321.745C760.365 322.913 761.45 324.102 762.522 325.314L764.548 327.585Z" fill="white"/>
<path d="M762.874 315.172L760.033 314.049L765.629 299.892L768.47 301.015L766.402 306.247L780.133 311.675L778.691 315.321L764.961 309.893L762.874 315.172Z" fill="white"/>
<path d="M783.405 302.303L766.056 298.234L769.155 285.025L772.129 285.722L769.92 295.14L773.91 296.076L775.892 287.625L778.792 288.305L776.81 296.756L781.32 297.814L783.523 288.421L786.498 289.119L783.405 302.303Z" fill="white"/>
<path d="M600.54 267.93C594.29 267.93 589.76 263.47 589.76 256.42C589.76 249.37 594.3 245.1 600.54 245.1C606.78 245.1 611.32 249.47 611.32 256.42C611.32 263.37 606.78 267.93 600.54 267.93ZM592.46 256.42C592.46 261.97 595.9 265.49 600.53 265.49C605.16 265.49 608.6 261.96 608.6 256.42C608.6 250.88 605.16 247.53 600.53 247.53C595.9 247.53 592.46 250.96 592.46 256.42ZM615.37 267.43V245.6H623.95C628.18 245.6 631.68 247.13 631.68 252.27C631.68 256.79 628.18 258.94 623.95 258.94H618.02V267.42H615.37V267.43ZM618.02 256.58H623.48C626.54 256.58 629 255.59 629 252.27C629 248.95 626.54 247.96 623.48 247.96H618.02V256.56V256.58ZM643.51 267.93C637.7 267.93 633.95 265 633.95 260.5L636.69 260.53C636.69 263.55 639.37 265.49 643.5 265.49C647.63 265.49 649.78 264.09 649.78 261.53C649.78 259.22 647.51 258.38 644.67 257.82L642.21 257.32C638.45 256.57 634.67 255.45 634.67 250.99C634.67 247.4 638.01 245.16 643.31 245.12C648.51 245.09 651.98 247.98 651.98 252.6H649.24C649.24 249.48 646.84 247.55 643.31 247.55C639.78 247.55 637.42 248.92 637.42 251.08C637.42 253.42 639.82 254.23 642.68 254.82L645.08 255.32C648.81 256.1 652.52 257.19 652.52 261.4C652.52 265.61 648.99 267.92 643.5 267.92L643.51 267.93Z" fill="white"/>
<path d="M640.08 517.48C571.51 517.48 506.69 490.04 457.57 440.21L450.02 432.55L442.47 440.21C393.35 490.04 328.53 517.48 259.96 517.48C191.39 517.48 129.3 491.8 81.33 447.03C29.2 398.39 0.5 331.61 0.5 258.99C0.5 186.37 29.2 119.58 81.31 70.95C129.28 26.18 194.39 0.5 259.95 0.5C325.51 0.5 393.34 27.94 442.46 77.77L450.01 85.43L457.56 77.77C506.69 27.94 571.51 0.5 640.08 0.5C708.65 0.5 770.74 26.18 818.71 70.95C870.82 119.58 899.52 186.36 899.52 258.98C899.52 331.6 870.82 398.39 818.71 447.02C770.74 491.79 705.63 517.47 640.07 517.47H640.08V517.48Z" stroke="#038E43" stroke-miterlimit="10"/>
<g opacity="0.7">
<path d="M61.3027 191.23C59.6916 195.777 56.7179 197.702 53.3034 196.416L54.5057 193.023C56.3183 193.512 57.7799 192.477 58.5975 190.169C59.3736 188.051 59.0971 186.604 57.7398 186.123C56.5182 185.69 55.6074 186.895 54.6283 188.509L53.8212 189.852C52.3245 192.352 50.4681 195.004 46.9617 193.762C44.2244 192.792 43.2737 189.654 44.7646 185.447C46.2074 181.375 49.133 179.585 52.6635 180.759L51.4772 184.107C49.666 183.542 48.1912 184.471 47.4858 186.462C46.7885 188.43 47.073 189.855 48.2719 190.279C49.584 190.744 50.5188 189.471 51.4979 187.858L52.4144 186.349C53.8871 183.917 55.6115 181.422 58.8238 182.56C61.9682 183.674 62.8416 186.886 61.3027 191.23Z" fill="#D9D9D9"/>
<path d="M64.2783 182.105L48.9534 175.221L52.4938 167.339C53.8706 164.274 56.0902 163.14 58.4984 164.222C60.6876 165.206 61.5121 167.47 60.7583 169.5L60.9116 169.568C61.928 167.657 63.1216 167.167 65.3368 167.741L70.169 168.991L68.625 172.428L64.8764 171.402C63.1262 170.905 62.5399 171.273 61.6843 173.178L60.2879 176.287L65.7829 178.755L64.2783 182.105ZM57.9016 175.215L59.4652 171.734C60.1733 170.158 59.6503 168.686 58.1179 167.998C56.6948 167.358 55.3766 167.95 54.6489 169.57L53.0852 173.051L57.9016 175.215Z" fill="#D9D9D9"/>
<path d="M71.2491 166.966L56.5173 158.891L62.6662 147.673L65.1916 149.058L60.8078 157.055L64.1961 158.912L68.13 151.736L70.5923 153.086L66.6584 160.262L70.4887 162.362L74.861 154.386L77.3865 155.77L71.2491 166.966Z" fill="#D9D9D9"/>
<path d="M137.412 81.6396L133.078 74.6465L135.532 73.1255L139.807 80.0224C140.841 81.6905 142.197 82.1596 143.897 81.1059C145.597 80.0522 145.833 78.6409 144.769 76.9247L140.504 70.0439L142.958 68.5229L147.293 75.516C149.201 78.5955 148.023 81.2794 145.12 83.0787C142.329 84.8084 139.321 84.7191 137.412 81.6396Z" fill="#D9D9D9"/>
<path d="M156.69 76.3693C153.349 78.164 150.6 77.7125 149.293 75.1589L151.787 73.8196C152.583 75.0627 153.981 75.2329 155.677 74.3221C157.248 73.4995 157.852 72.5109 157.317 71.5135C156.835 70.6158 155.668 70.8356 154.245 71.2572L153.065 71.6125C150.872 72.276 148.39 72.8383 147.006 70.2616C145.925 68.2501 147.031 65.9214 150.123 64.2606C153.115 62.6535 155.764 63.1586 157.198 65.7085L154.737 67.0299C153.982 65.7434 152.633 65.5043 151.17 66.29C149.724 67.0668 149.136 68.0464 149.609 68.9275C150.127 69.8917 151.344 69.645 152.767 69.2235L154.098 68.83C156.24 68.1933 158.563 67.6526 159.831 70.0132C161.072 72.3239 159.882 74.655 156.69 76.3693Z" fill="#D9D9D9"/>
<path d="M163.27 72.612L157.7 60.6348L166.82 56.3937L167.774 58.447L161.273 61.4706L162.554 64.2254L168.388 61.5121L169.319 63.514L163.485 66.2273L164.933 69.3414L171.418 66.3257L172.372 68.379L163.27 72.612Z" fill="#D9D9D9"/>
<path d="M183.37 64.3221C179.816 65.6479 177.154 64.8285 176.205 62.1214L178.857 61.132C179.477 62.4714 180.839 62.8293 182.643 62.1565C184.311 61.5542 185.044 60.6565 184.648 59.5957C184.292 58.641 183.106 58.7009 181.639 58.9259L180.421 59.1182C178.159 59.4788 175.623 59.6999 174.601 56.9595C173.803 54.8203 175.213 52.6627 178.502 51.4358C181.684 50.2485 184.24 51.1075 185.316 53.8281L182.699 54.8043C182.125 53.4274 180.82 53.0078 179.265 53.5882C177.726 54.1621 177.012 55.0531 177.361 55.9902C177.744 57.0156 178.983 56.9359 180.45 56.7109L181.822 56.5012C184.031 56.1604 186.405 55.9391 187.342 58.4496C188.259 60.907 186.764 63.0557 183.37 64.3221Z" fill="#D9D9D9"/>
<path d="M190.368 61.4992L186.469 48.8789L196.079 45.9098L196.747 48.0733L189.896 50.1901L190.793 53.0928L196.941 51.1932L197.592 53.3026L191.445 55.2022L192.458 58.4834L199.291 56.3722L199.96 58.5357L190.368 61.4992Z" fill="#D9D9D9"/>
<path d="M201.822 58.0155L198.664 45.1895L205.261 43.5656C207.826 42.9341 209.603 43.7597 210.099 45.7752C210.551 47.6075 209.547 49.2149 207.925 49.7308L207.957 49.8591C209.633 49.563 210.514 50.0651 211.231 51.7153L212.797 55.3136L209.921 56.0218L208.741 53.2029C208.201 51.8783 207.689 51.6934 206.095 52.0858L203.493 52.7263L204.625 57.3254L201.822 58.0155ZM203.002 50.7291L205.915 50.0119C207.234 49.6871 207.892 48.6506 207.577 47.368C207.283 46.177 206.278 45.6471 204.923 45.9809L202.009 46.6981L203.002 50.7291Z" fill="#D9D9D9"/>
<path d="M217.861 54.3602L210.748 42.2344L213.773 41.6802L216.529 46.7771C217.363 48.2933 218.201 49.8281 219.001 51.3697L219.131 51.3459L219.845 46.1314L220.622 40.4256L223.573 39.885L221.257 53.738L217.861 54.3602Z" fill="#D9D9D9"/>
<path d="M225.565 39.6797L228.426 39.2864L230.225 52.3722L227.365 52.7655L225.565 39.6797Z" fill="#D9D9D9"/>
<path d="M238.74 51.7432C234.718 52.105 231.964 49.7191 231.579 45.4341C231.192 41.1302 233.48 38.3477 237.502 37.9859C240.96 37.6748 243.364 39.3343 244.098 42.2239L241.128 42.491C240.597 41.0042 239.398 40.1078 237.707 40.26C235.527 40.4561 234.307 42.271 234.567 45.1653C234.827 48.0596 236.374 49.6635 238.629 49.4607C240.452 49.2967 241.504 47.9327 241.564 46.0705L244.496 45.8068C244.506 49.0836 242.423 51.4119 238.74 51.7432Z" fill="#D9D9D9"/>
<path d="M246.813 50.8235L246.462 37.6191L256.517 37.3524L256.577 39.616L249.409 39.8062L249.489 42.8432L255.921 42.6725L255.98 44.8795L249.548 45.0502L249.639 48.4833L256.788 48.2936L256.848 50.5572L246.813 50.8235Z" fill="#D9D9D9"/>
<path d="M263.291 50.6794L263.978 37.4883L266.861 37.6384L266.292 48.5682L272.793 48.9066L272.676 51.168L263.291 50.6794Z" fill="#D9D9D9"/>
<path d="M274.388 51.3143L275.823 38.1836L285.822 39.2768L285.575 41.5278L278.447 40.7484L278.117 43.7685L284.514 44.4679L284.274 46.6626L277.877 45.9632L277.504 49.3772L284.613 50.1545L284.367 52.4055L274.388 51.3143Z" fill="#D9D9D9"/>
<path d="M289.904 53.3064L287.413 39.4707L290.444 39.9948L291.272 45.7297C291.531 47.4406 291.787 49.1701 292.006 50.8932L292.137 50.9157L294.606 46.268L297.305 41.1811L300.262 41.6923L293.307 53.8948L289.904 53.3064Z" fill="#D9D9D9"/>
<path d="M299.343 55.0369L302.404 42.1875L312.188 44.5184L311.663 46.7211L304.688 45.0593L303.984 48.0147L310.243 49.5059L309.732 51.6536L303.472 50.1624L302.676 53.5032L309.633 55.1606L309.109 57.3634L299.343 55.0369Z" fill="#D9D9D9"/>
<path d="M310.956 57.8882L314.745 45.2344L317.511 46.0626L314.371 56.5472L320.608 58.4147L319.958 60.5839L310.956 57.8882Z" fill="#D9D9D9"/>
<path d="M331.433 65.1032C327.643 63.6021 326.153 60.1905 327.731 56.2081C329.308 52.2257 332.723 50.7776 336.513 52.2787C340.285 53.7729 341.799 57.1738 340.222 61.1562C338.644 65.1386 335.24 66.6112 331.433 65.1032ZM330.52 57.3131C329.387 60.1727 330.168 62.1464 332.274 62.9804C334.379 63.8143 336.3 62.9109 337.432 60.0512C338.544 57.2443 337.76 55.2285 335.672 54.4015C333.567 53.5676 331.632 54.5061 330.52 57.3131Z" fill="#D9D9D9"/>
<path d="M339.503 68.1137L345.19 56.1914L351.509 59.2053C353.621 60.2127 354.451 61.7587 353.647 63.4448C352.891 65.0288 351.264 65.5486 349.545 64.8125L349.488 64.9317C351.372 65.9348 352.105 67.6852 351.252 69.4736C350.196 71.6877 348.07 72.1999 345.328 70.892L339.503 68.1137ZM343.084 67.3128L346.082 68.7426C347.257 69.3031 348.172 69.0497 348.643 68.0619C349.098 67.1081 348.703 66.2714 347.528 65.7109L344.53 64.2811L343.084 67.3128ZM345.407 62.4417L348.167 63.7577C349.188 64.2452 350.17 63.8977 350.6 62.9951C350.998 62.1605 350.636 61.2979 349.716 60.8592L346.821 59.4782L345.407 62.4417Z" fill="#D9D9D9"/>
<path d="M352.858 69.7182L353.214 69.074L355.675 70.4337L355.201 71.2925C354.48 72.5974 354.755 73.504 355.911 74.1427C357.1 74.7998 358.031 74.365 358.788 72.9941L363.059 65.2643L365.602 66.6696L361.405 74.2673C359.643 77.4551 357.103 77.4097 354.857 76.1687C352.693 74.9732 351.07 72.9555 352.858 69.7182Z" fill="#D9D9D9"/>
<path d="M361.195 79.3925L368.224 68.209L376.74 73.5611L375.535 75.4782L369.464 71.6625L367.847 74.2347L373.295 77.6588L372.12 79.5281L366.672 76.1039L364.844 79.0117L370.9 82.8174L369.695 84.7345L361.195 79.3925Z" fill="#D9D9D9"/>
<path d="M375.92 89.493C372.64 87.1371 372.117 83.5316 374.627 80.0373C377.148 76.5277 380.698 75.9185 383.978 78.2744C386.798 80.3 387.532 83.1273 386.198 85.7934L383.776 84.054C384.346 82.5814 384.026 81.1196 382.646 80.1288C380.868 78.8518 378.759 79.4275 377.063 81.7877C375.368 84.1479 375.489 86.3725 377.329 87.6936C378.815 88.7614 380.503 88.4172 381.766 87.0473L384.157 88.7647C382.022 91.2509 378.924 91.6507 375.92 89.493Z" fill="#D9D9D9"/>
<path d="M388.231 84.5508L389.656 82.791L398.426 89.8924L397.001 91.6522L393.76 89.0278L386.872 97.5333L384.614 95.7045L391.501 87.199L388.231 84.5508Z" fill="#D9D9D9"/>
<path d="M400.063 91.3828L402.231 93.2894L393.508 103.208L391.34 101.302L400.063 91.3828Z" fill="#D9D9D9"/>
<path d="M398.128 107.45L403.798 94.5859L406.018 96.7148L403.498 101.933C402.757 103.496 402.002 105.073 401.221 106.625L401.316 106.716L405.962 104.243L411.043 101.534L413.209 103.611L400.621 109.84L398.128 107.45Z" fill="#D9D9D9"/>
<path d="M405.048 114.275L414.455 105.002L421.516 112.165L419.903 113.754L414.869 108.648L412.705 110.78L417.223 115.363L415.651 116.913L411.133 112.33L408.687 114.741L413.708 119.835L412.096 121.424L405.048 114.275Z" fill="#D9D9D9"/>
<path d="M492.186 113.992L482.916 104.582L490.081 97.5237L491.67 99.1369L486.562 104.169L488.694 106.333L493.278 101.818L494.827 103.39L490.243 107.906L492.653 110.353L497.748 105.334L499.337 106.947L492.186 113.992Z" fill="#D9D9D9"/>
<path d="M500.779 105.639L492.02 95.752L494.181 93.8374L501.438 102.029L506.311 97.7122L507.813 99.4071L500.779 105.639Z" fill="#D9D9D9"/>
<path d="M500.815 88.1055L503.048 86.2753L511.422 96.4911L509.189 98.3213L500.815 88.1055Z" fill="#D9D9D9"/>
<path d="M513.297 94.8422L505.479 84.1953L508.855 81.7159L513.548 84.9186C514.658 85.696 515.756 86.4582 516.85 87.2467L516.956 87.1685C516.527 85.9149 516.125 84.6654 515.726 83.3895L514.057 77.8962L517.449 75.4056L525.267 86.0525L522.986 87.7278L519.523 83.0127C518.663 81.8416 517.788 80.6816 516.932 79.484L516.856 79.5399C517.351 80.9791 517.82 82.4143 518.284 83.8758L520.202 89.7716L518.347 91.1342L513.269 87.5351C512.055 86.6472 510.8 85.7664 509.601 84.8673L509.51 84.9343C510.396 86.1095 511.23 87.2766 512.09 88.4478L515.563 93.1781L513.297 94.8422Z" fill="#D9D9D9"/>
<path d="M520.182 73.7109L522.598 72.1305L529.829 83.1846L527.412 84.765L520.182 73.7109Z" fill="#D9D9D9"/>
<path d="M529.533 72.2136C530.267 73.4238 530.969 74.6532 531.686 75.873L534.318 80.3455L531.911 81.7617L525.213 70.377L527.961 68.7598L533.922 71.821C535.088 72.4265 536.229 73.0253 537.523 73.7744L537.628 73.6911C536.849 72.4417 536.208 71.352 535.567 70.2623L532.954 65.8222L535.394 64.3869L542.092 75.7717L539.408 77.3505L533.864 74.4386C532.478 73.7212 531.109 72.9942 529.612 72.1236L529.533 72.2136Z" fill="#D9D9D9"/>
<path d="M545.821 73.8179L543.172 75.1439L541.697 61.1107L544.887 59.5143L555.372 69.0373L552.638 70.4056L550.266 68.1112L545.389 70.5522L545.821 73.8179ZM545.085 68.2148L548.561 66.4748L546.881 64.8468C546.036 64.0455 545.217 63.2104 544.398 62.3753L544.28 62.4344C544.467 63.6074 544.636 64.7888 544.788 65.9786L545.085 68.2148Z" fill="#D9D9D9"/>
<path d="M549.751 59.6236L548.849 57.5469L559.198 53.0491L560.1 55.1258L556.276 56.7881L560.638 66.8257L557.973 67.984L553.611 57.9464L549.751 59.6236Z" fill="#D9D9D9"/>
<path d="M565.963 64.5904L561.419 52.1875L570.863 48.7278L571.642 50.854L564.909 53.3206L565.954 56.1733L571.996 53.9598L572.755 56.0329L566.713 58.2463L567.895 61.4711L574.61 59.011L575.389 61.1372L565.963 64.5904Z" fill="#D9D9D9"/>
<path d="M577.874 48.849L577.272 46.666L588.151 43.6675L588.752 45.8505L584.732 46.9586L587.64 57.5098L584.839 58.282L581.931 47.7308L577.874 48.849Z" fill="#D9D9D9"/>
<path d="M598.517 55.2078C594.528 56.0434 591.404 54.0178 590.526 49.8252C589.648 45.6327 591.7 42.5424 595.689 41.7068C599.66 40.8751 602.798 42.8784 603.676 47.0709C604.554 51.2634 602.525 54.3683 598.517 55.2078ZM593.463 49.2102C594.093 52.2206 595.833 53.4372 598.049 52.973C600.265 52.5088 601.37 50.6964 600.74 47.686C600.121 44.7309 598.355 43.4812 596.157 43.9416C593.941 44.4058 592.844 46.2551 593.463 49.2102Z" fill="#D9D9D9"/>
<path d="M606.915 53.2976L605.037 40.2227L607.895 39.8124L609.451 50.6459L615.895 49.7207L616.217 51.9621L606.915 53.2976Z" fill="#D9D9D9"/>
<path d="M617.926 51.7931L616.77 38.6348L619.646 38.3821L620.604 49.2848L627.089 48.7151L627.287 50.9708L617.926 51.7931Z" fill="#D9D9D9"/>
<path d="M705.314 60.9811L709.836 48.5703L713.772 50.0045L713.711 55.6857C713.679 57.0399 713.654 58.3764 713.605 59.7241L713.729 59.7694C714.534 58.7171 715.351 57.6891 716.191 56.6498L719.836 52.2138L723.79 53.6544L719.268 66.0652L716.608 65.0962L718.611 59.6C719.108 58.2348 719.588 56.8632 720.11 55.4867L720.021 55.4544C719.098 56.6645 718.164 57.8505 717.205 59.0477L713.364 63.914L711.201 63.1259L711.379 56.9046C711.444 55.4021 711.481 53.869 711.564 52.3729L711.457 52.3342C710.971 53.7235 710.463 55.0646 709.965 56.4297L707.956 61.9437L705.314 60.9811Z" fill="#D9D9D9"/>
<path d="M726.971 69.7929C723.254 68.1189 721.923 64.6424 723.682 60.7368C725.442 56.8313 728.92 55.5421 732.636 57.2161C736.335 58.8824 737.692 62.3495 735.932 66.255C734.173 70.1606 730.704 71.4748 726.971 69.7929ZM726.418 61.9691C725.155 64.7735 725.844 66.7811 727.908 67.7111C729.973 68.6412 731.933 67.8271 733.197 65.0227C734.437 62.2699 733.746 60.2202 731.698 59.2979C729.634 58.3679 727.658 59.2163 726.418 61.9691Z" fill="#D9D9D9"/>
<path d="M741.819 66.1603C741.169 67.4175 740.486 68.6569 739.819 69.9053L737.374 74.4824L734.91 73.1666L741.134 61.5156L743.947 63.0182L744.442 69.7007C744.533 71.0117 744.617 72.2971 744.653 73.7923L744.778 73.8379C745.438 72.5219 746.034 71.4067 746.63 70.2916L749.057 65.7477L751.553 67.0813L745.33 78.7323L742.583 77.2653L742.178 71.0157C742.068 69.4594 741.975 67.912 741.937 66.1804L741.819 66.1603Z" fill="#D9D9D9"/>
<path d="M754.239 68.7051L756.72 70.1812L749.966 81.5331L747.485 80.057L754.239 68.7051Z" fill="#D9D9D9"/>
<path d="M757.416 73.1799L758.653 71.2832L768.105 77.4472L766.868 79.3439L763.375 77.0659L757.396 86.2334L754.962 84.646L760.941 75.4785L757.416 73.1799Z" fill="#D9D9D9"/>
<path d="M766.344 92.8621C763.069 90.4359 762.507 86.7557 765.057 83.3138C767.607 79.8718 771.279 79.3518 774.555 81.778C777.815 84.1929 778.403 87.8691 775.853 91.3111C773.303 94.7531 769.634 95.2995 766.344 92.8621ZM767.468 85.0997C765.637 87.5712 765.883 89.6795 767.703 91.0273C769.522 92.3752 771.611 91.9967 773.442 89.5252C775.239 87.0991 775 84.9493 773.196 83.6127C771.376 82.2648 769.265 82.6736 767.468 85.0997Z" fill="#D9D9D9"/>
<path d="M773.357 97.8366L781.911 87.7715L787.087 92.1707C789.1 93.8815 789.47 95.8059 788.126 97.3876C786.904 98.8255 785.014 98.9521 783.646 97.9386L783.561 98.0393C784.781 99.2253 784.89 100.234 783.971 101.781L781.97 105.156L779.712 103.238L781.308 100.632C782.066 99.4189 781.917 98.8956 780.666 97.8324L778.624 96.0972L775.557 99.7063L773.357 97.8366ZM779.956 94.5299L782.242 96.4729C783.277 97.3527 784.503 97.28 785.358 96.2735C786.153 95.3389 785.995 94.2139 784.93 93.3096L782.644 91.3666L779.956 94.5299Z" fill="#D9D9D9"/>
<path d="M791.823 111.534C793.413 113.146 795.493 113.373 797.642 111.252C799.871 109.051 799.564 107.021 798 105.436L796.396 103.811L790.218 109.91L791.823 111.534ZM786.579 109.446L795.979 100.166L799.678 103.913C802.342 106.612 802.973 110.179 799.737 113.374C796.353 116.714 792.929 115.878 790.277 113.192L786.579 109.446Z" fill="#D9D9D9"/>
<path d="M806.117 110.689L808.046 112.838L798.217 121.663L796.288 119.514L806.117 110.689Z" fill="#D9D9D9"/>
<path d="M803.06 127.794C800.655 124.861 800.569 122.077 802.823 120.302L804.617 122.491C803.551 123.512 803.653 124.917 804.874 126.405C805.984 127.789 807.07 128.191 807.946 127.473C808.734 126.827 808.293 125.724 807.605 124.409L807.029 123.32C805.956 121.296 804.926 118.969 807.187 117.114C808.953 115.666 811.451 116.302 813.676 119.016C815.83 121.643 815.845 124.339 813.619 126.238L811.848 124.078C812.965 123.089 812.94 121.719 811.887 120.435C810.846 119.165 809.771 118.778 808.998 119.412C808.152 120.106 808.628 121.252 809.316 122.567L809.959 123.797C810.996 125.777 811.974 127.952 809.902 129.651C807.874 131.314 805.357 130.596 803.06 127.794Z" fill="#D9D9D9"/>
<path d="M816.033 125.959L817.865 124.629L824.495 133.76L822.662 135.091L820.212 131.716L811.356 138.146L809.649 135.794L818.505 129.364L816.033 125.959Z" fill="#D9D9D9"/>
<path d="M814.698 142.861L825.85 135.781L829.491 141.516C830.907 143.747 830.69 145.694 828.938 146.807C827.345 147.818 825.502 147.379 824.496 146.006L824.384 146.077C825.199 147.571 825.004 148.567 823.668 149.773L820.756 152.403L819.169 149.902L821.465 147.886C822.548 146.952 822.56 146.408 821.68 145.022L820.244 142.76L816.246 145.298L814.698 142.861ZM821.981 141.657L823.589 144.19C824.317 145.337 825.509 145.631 826.624 144.923C827.66 144.266 827.842 143.144 827.094 141.965L825.486 139.432L821.981 141.657Z" fill="#D9D9D9"/>
<path d="M833.078 147.469L834.512 149.975L823.046 156.533L821.612 154.027L833.078 147.469Z" fill="#D9D9D9"/>
<path d="M824.326 158.701L836.079 152.674L839.274 158.903C840.342 160.985 840.064 162.718 838.402 163.571C836.84 164.371 835.231 163.797 834.311 162.169L834.194 162.23C835.083 164.17 834.603 166.006 832.84 166.91C830.658 168.03 828.657 167.147 827.271 164.444L824.326 158.701ZM827.658 160.237L829.174 163.192C829.768 164.351 830.649 164.705 831.623 164.205C832.563 163.723 832.756 162.818 832.162 161.66L830.647 158.704L827.658 160.237ZM832.46 157.774L833.855 160.495C834.372 161.502 835.362 161.821 836.252 161.365C837.075 160.943 837.311 160.037 836.846 159.131L835.382 156.276L832.46 157.774Z" fill="#D9D9D9"/>
<path d="M834.67 168.101L842.223 164.838L843.368 167.488L835.919 170.707C834.118 171.485 833.455 172.758 834.249 174.594C835.042 176.431 836.404 176.87 838.257 176.069L845.688 172.858L846.833 175.508L839.281 178.772C835.955 180.209 833.473 178.65 832.118 175.515C830.816 172.501 831.344 169.539 834.67 168.101Z" fill="#D9D9D9"/>
<path d="M845.462 178.225L847.592 177.459L851.411 188.077L849.28 188.844L847.869 184.92L837.57 188.623L836.587 185.889L846.886 182.185L845.462 178.225Z" fill="#D9D9D9"/>
<path d="M839.464 194.092L852.134 190.355L854.979 200.002L852.807 200.643L850.779 193.765L847.865 194.624L849.685 200.796L847.567 201.421L845.747 195.249L842.453 196.22L844.476 203.08L842.304 203.72L839.464 194.092Z" fill="#D9D9D9"/>
<path d="M846.158 210.114C846.661 212.322 848.309 213.61 851.253 212.939C854.307 212.243 855.116 210.356 854.621 208.185L854.114 205.959L845.65 207.888L846.158 210.114ZM842.801 205.576L855.68 202.641L856.85 207.774C857.693 211.472 856.35 214.836 851.916 215.846C847.279 216.903 844.81 214.389 843.971 210.709L842.801 205.576Z" fill="#D9D9D9"/>
<path d="M847.039 228.907C846.513 225.151 847.889 222.729 850.738 222.387L851.13 225.19C849.688 225.507 849.044 226.759 849.311 228.665C849.538 230.424 850.256 231.334 851.377 231.177C852.387 231.036 852.585 229.865 852.682 228.384L852.758 227.154C852.895 224.867 853.227 222.343 856.124 221.938C858.385 221.621 860.187 223.465 860.673 226.941C861.144 230.305 859.753 232.615 856.864 233.076L856.477 230.31C857.945 230.048 858.637 228.865 858.407 227.22C858.179 225.594 857.464 224.704 856.474 224.842C855.39 224.994 855.199 226.221 855.102 227.702L855.01 229.087C854.865 231.317 854.567 233.684 851.914 234.055C849.316 234.419 847.542 232.495 847.039 228.907Z" fill="#D9D9D9"/>
<path d="M861.251 233.08L861.526 236.333L859.795 237.596C858.275 238.652 857.434 239.235 856.427 239.869L856.438 240C857.537 240.457 858.501 240.887 860.236 241.706L862.054 242.595L862.32 245.753L853.993 241.551L848.747 241.993L848.503 239.098L853.768 238.654L861.251 233.08Z" fill="#D9D9D9"/>
<path d="M849.019 252.662C848.909 248.871 850.543 246.615 853.411 246.588L853.493 249.417C852.025 249.573 851.248 250.747 851.303 252.671C851.336 254.445 851.95 255.428 853.081 255.395C854.1 255.365 854.426 254.223 854.685 252.762L854.895 251.548C855.283 249.29 855.891 246.818 858.815 246.734C861.097 246.667 862.685 248.698 862.787 252.206C862.885 255.602 861.248 257.744 858.326 257.886L858.245 255.094C859.734 254.994 860.551 253.895 860.503 252.235C860.456 250.594 859.843 249.63 858.843 249.659C857.749 249.691 857.425 250.889 857.165 252.35L856.922 253.717C856.532 255.918 855.977 258.237 853.298 258.315C850.676 258.391 849.124 256.283 849.019 252.662Z" fill="#D9D9D9"/>
<path d="M860.408 259.093L862.672 259.148L862.394 270.429L860.13 270.374L860.233 266.205L849.292 265.935L849.363 263.03L860.304 263.299L860.408 259.093Z" fill="#D9D9D9"/>
<path d="M849.074 271.745L862.242 272.793L861.444 282.819L859.186 282.639L859.755 275.491L856.727 275.25L856.216 281.665L854.015 281.49L854.526 275.075L851.102 274.803L850.535 281.932L848.278 281.752L849.074 271.745Z" fill="#D9D9D9"/>
<path d="M848.135 283.637L861.2 285.578L860.585 289.722L855.006 290.801C853.673 291.042 852.359 291.285 851.029 291.507L851.009 291.638C852.202 292.216 853.373 292.809 854.559 293.424L859.636 296.105L859.018 300.268L845.952 298.327L846.368 295.527L852.154 296.386C853.592 296.6 855.032 296.795 856.485 297.03L856.499 296.936C855.128 296.275 853.779 295.598 852.414 294.899L846.876 292.111L847.214 289.834L853.345 288.761C854.83 288.523 856.339 288.252 857.821 288.033L857.838 287.921C856.379 287.724 854.964 287.494 853.526 287.281L847.721 286.418L848.135 283.637Z" fill="#D9D9D9"/>
<path d="M844.008 305.796C844.832 302.094 846.969 300.308 849.757 300.986L849.142 303.749C847.68 303.54 846.638 304.487 846.22 306.366C845.816 308.093 846.17 309.197 847.275 309.443C848.269 309.664 848.865 308.637 849.476 307.284L849.978 306.159C850.908 304.065 852.104 301.818 854.959 302.454C857.188 302.95 858.228 305.308 857.466 308.734C856.728 312.05 854.615 313.725 851.748 313.145L852.355 310.419C853.822 310.687 854.884 309.822 855.245 308.201C855.602 306.599 855.244 305.514 854.268 305.296C853.2 305.059 852.591 306.141 851.981 307.494L851.41 308.759C850.492 310.797 849.384 312.909 846.768 312.326C844.208 311.756 843.22 309.333 844.008 305.796Z" fill="#D9D9D9"/>
<path d="M32.3281 291.31L45.6286 289.062L47.3397 299.19L45.0596 299.575L43.8397 292.355L40.7806 292.872L41.8753 299.351L39.6522 299.727L38.5575 293.247L35.0994 293.832L36.3161 301.033L34.036 301.418L32.3281 291.31Z" fill="#D9D9D9"/>
<path d="M34.5033 304.119L47.6326 301.025L48.6139 305.189L43.7291 308.32C42.5553 309.052 41.4003 309.78 40.2221 310.493L40.2531 310.624C41.6026 310.722 42.9377 310.843 44.296 310.978L50.1255 311.604L51.1111 315.787L37.9818 318.881L37.3188 316.067L43.1332 314.697C44.5774 314.357 46.0173 313.997 47.4847 313.671L47.4626 313.578C45.9123 313.468 44.3763 313.335 42.8171 313.188L36.5099 312.635L35.9707 310.346L41.3817 307.012C42.7011 306.226 44.0304 305.398 45.3542 304.631L45.3277 304.518C43.8691 304.882 42.4393 305.199 40.995 305.539L35.1618 306.914L34.5033 304.119Z" fill="#D9D9D9"/>
<path d="M38.9283 322.084L51.8113 318.086L53.9301 324.914C54.6383 327.196 54.0544 328.89 52.2324 329.456C50.5208 329.987 49.0028 329.126 48.3638 327.327L48.2349 327.367C48.7883 329.475 47.9835 331.238 46.0511 331.838C43.6585 332.581 41.801 331.341 40.8815 328.378L38.9283 322.084ZM42.0106 324.214L43.0158 327.453C43.4099 328.723 44.2342 329.234 45.3017 328.903C46.3323 328.583 46.6858 327.707 46.2917 326.437L45.2866 323.198L42.0106 324.214ZM47.2742 322.581L48.1994 325.562C48.5421 326.667 49.4826 327.162 50.458 326.859C51.3598 326.579 51.7559 325.71 51.4475 324.716L50.4766 321.587L47.2742 322.581Z" fill="#D9D9D9"/>
<path d="M43.1829 335.428L55.7944 330.643L58.2556 337.129C59.2127 339.651 58.5954 341.555 56.6136 342.307C54.812 342.99 53.0586 342.172 52.3352 340.591L52.2091 340.639C52.7163 342.301 52.3163 343.257 50.7321 344.188L47.278 346.22L46.2047 343.391L48.9164 341.847C50.1924 341.136 50.3166 340.595 49.7218 339.027L48.751 336.469L44.2289 338.185L43.1829 335.428ZM50.7148 335.724L51.8019 338.588C52.2941 339.885 53.4262 340.424 54.6873 339.946C55.8584 339.502 56.2714 338.417 55.7655 337.084L54.6785 334.219L50.7148 335.724Z" fill="#D9D9D9"/>
<path d="M49.2295 350.72L47.9705 347.969L62.3451 346.964L63.8606 350.276L53.768 360.637L52.469 357.799L54.8951 355.459L52.5777 350.395L49.2295 350.72ZM54.9741 350.167L56.626 353.777L58.3473 352.12C59.1952 351.287 60.0767 350.481 60.9582 349.675L60.902 349.553C59.6983 349.701 58.4866 349.832 57.2669 349.945L54.9741 350.167Z" fill="#D9D9D9"/>
<path d="M57.0372 367.398C55.0885 363.764 56.2289 360.222 60.1009 358.146C63.99 356.061 67.5198 357.098 69.4685 360.732C71.144 363.857 70.5464 366.78 68.1247 368.625L66.686 365.941C67.8703 364.847 68.2332 363.363 67.4136 361.834C66.3573 359.864 64.1641 359.444 61.5488 360.846C58.9335 362.249 58.0449 364.343 59.1376 366.381C60.0209 368.028 61.7233 368.471 63.4969 367.783L64.9174 370.432C61.8428 371.752 58.822 370.726 57.0372 367.398Z" fill="#D9D9D9"/>
<path d="M61.707 375.168L73.1873 368.086L78.5798 376.827L76.6118 378.041L72.7672 371.809L70.1267 373.438L73.5767 379.031L71.6579 380.214L68.2079 374.622L65.223 376.463L69.0574 382.679L67.0894 383.893L61.707 375.168Z" fill="#D9D9D9"/>
<path d="M71.2834 390.136L82.1976 382.209L86.2742 387.822C87.8595 390.005 87.7633 392.004 86.0482 393.249C84.489 394.382 82.5823 394.052 81.4696 392.717L81.3604 392.796C82.286 394.267 82.1508 395.294 80.8663 396.608L78.0664 399.475L76.2885 397.027L78.5001 394.826C79.5449 393.805 79.5226 393.249 78.5374 391.893L76.9294 389.679L73.0159 392.521L71.2834 390.136ZM78.6289 388.445L80.4294 390.924C81.2448 392.046 82.4786 392.27 83.57 391.477C84.5835 390.741 84.6976 389.586 83.8596 388.432L82.0591 385.953L78.6289 388.445Z" fill="#D9D9D9"/>
<path d="M90.1528 392.955L91.9761 395.272L81.3757 403.614L79.5524 401.297L90.1528 392.955Z" fill="#D9D9D9"/>
<path d="M86.5245 410.319C84.0209 407.364 83.8868 404.522 86.1591 402.673L88.0275 404.879C86.9553 405.938 87.0829 407.371 88.3534 408.871C89.5096 410.265 90.6255 410.658 91.5077 409.911C92.3017 409.238 91.8337 408.119 91.1099 406.788L90.5038 405.685C89.3744 403.636 88.2845 401.277 90.5635 399.346C92.3425 397.839 94.9036 398.447 97.2205 401.182C99.4625 403.829 99.5218 406.582 97.2802 408.556L95.4367 406.38C96.5609 405.352 96.5126 403.954 95.4165 402.66C94.3328 401.381 93.2293 401.002 92.45 401.662C91.5972 402.385 92.1026 403.548 92.8265 404.879L93.5027 406.125C94.5948 408.129 95.6292 410.334 93.5413 412.103C91.4976 413.834 88.9161 413.142 86.5245 410.319Z" fill="#D9D9D9"/>
<path d="M92.2008 416.477L102.056 407.268L104.069 409.422L99.4269 413.655L99.4777 413.765C101.051 413.614 102.361 413.577 103.793 413.557L107.872 413.491L110.279 416.067L105.752 416.105C104.729 416.111 103.625 416.114 102.575 416.093L102.516 416.227C103.312 417.304 103.385 418.342 102.806 419.754L100.621 425.488L98.5161 423.236L100.111 418.818C100.576 417.565 100.377 417.013 99.5881 416.141L96.8607 416.158L94.2138 418.632L92.2008 416.477Z" fill="#D9D9D9"/>
<path d="M184.751 477.613C181.058 476.443 179.432 474.109 180.371 471.335L183.127 472.207C182.784 473.675 183.654 474.82 185.528 475.413C187.249 475.978 188.403 475.717 188.752 474.615C189.066 473.623 188.074 472.925 186.753 472.183L185.653 471.572C183.606 470.439 181.427 469.021 182.329 466.173C183.033 463.951 185.525 463.102 188.942 464.184C192.249 465.231 193.764 467.531 192.918 470.396L190.199 469.535C190.603 468.066 189.818 466.908 188.201 466.396C186.603 465.89 185.467 466.157 185.159 467.13C184.822 468.196 185.869 468.911 187.19 469.653L188.426 470.348C190.417 471.463 192.466 472.779 191.64 475.388C190.832 477.941 188.278 478.73 184.751 477.613Z" fill="#D9D9D9"/>
<path d="M194.301 468.581L194.87 466.34L206.04 469.174L205.471 471.416L201.343 470.368L198.594 481.201L195.717 480.471L198.467 469.638L194.301 468.581Z" fill="#D9D9D9"/>
<path d="M205.047 482.752L207.573 469.502L214.387 470.801C217.037 471.306 218.336 472.828 217.939 474.911C217.578 476.803 215.963 477.869 214.238 477.658L214.213 477.79C215.895 478.228 216.499 479.07 216.463 480.907L216.386 484.913L213.414 484.347L213.518 481.228C213.58 479.769 213.184 479.379 211.537 479.065L208.849 478.553L207.944 483.304L205.047 482.752ZM209.242 476.49L212.252 477.063C213.615 477.323 214.667 476.641 214.919 475.316C215.154 474.085 214.446 473.166 213.046 472.899L210.036 472.325L209.242 476.49Z" fill="#D9D9D9"/>
<path d="M220.727 471.869L223.645 472.293L221.707 485.642L218.789 485.218L220.727 471.869Z" fill="#D9D9D9"/>
<path d="M228.602 486.489L225.055 472.578L228.18 472.891L229.442 478.672C229.831 480.395 230.218 482.138 230.567 483.878L230.702 483.891L232.878 478.977L235.255 473.598L238.304 473.903L232.111 486.84L228.602 486.489Z" fill="#D9D9D9"/>
<path d="M239.098 487.424L239.632 473.945L249.895 474.352L249.804 476.663L242.487 476.373L242.364 479.473L248.93 479.733L248.841 481.986L242.275 481.726L242.136 485.23L249.433 485.519L249.342 487.83L239.098 487.424Z" fill="#D9D9D9"/>
<path d="M256.885 487.798L256.372 474.318L266.231 473.943L266.319 476.254L259.406 476.517L259.543 480.118L265.859 479.877L265.945 482.13L259.629 482.371L259.831 487.685L256.885 487.798Z" fill="#D9D9D9"/>
<path d="M275.484 486.936C271.343 487.359 268.387 484.968 267.943 480.616C267.499 476.265 269.912 473.345 274.053 472.922C278.175 472.501 281.148 474.871 281.592 479.223C282.037 483.574 279.644 486.511 275.484 486.936ZM270.991 480.305C271.31 483.43 272.947 484.851 275.247 484.616C277.548 484.381 278.863 482.659 278.544 479.534C278.231 476.467 276.571 475.009 274.29 475.242C271.99 475.477 270.678 477.238 270.991 480.305Z" fill="#D9D9D9"/>
<path d="M284.99 485.525L282.764 472.221L289.606 471.076C292.266 470.63 294.013 471.608 294.362 473.699C294.681 475.599 293.535 477.159 291.843 477.559L291.866 477.692C293.595 477.52 294.454 478.099 295.057 479.835L296.374 483.62L293.39 484.119L292.406 481.158C291.959 479.767 291.452 479.539 289.798 479.816L287.099 480.268L287.898 485.038L284.99 485.525ZM286.753 478.196L289.775 477.69C291.143 477.461 291.893 476.457 291.671 475.126C291.464 473.891 290.481 473.274 289.075 473.509L286.053 474.015L286.753 478.196Z" fill="#D9D9D9"/>
<path d="M308.901 481.077C305.141 482.006 302.536 480.863 301.889 478.006L304.695 477.312C305.168 478.744 306.508 479.266 308.416 478.795C310.179 478.379 311.028 477.554 310.75 476.432C310.501 475.421 309.29 475.343 307.776 475.4L306.518 475.453C304.181 475.554 301.583 475.481 300.866 472.582C300.307 470.318 301.991 468.294 305.47 467.434C308.837 466.602 311.33 467.773 312.103 470.659L309.334 471.343C308.913 469.879 307.638 469.3 305.992 469.707C304.364 470.109 303.535 470.93 303.78 471.921C304.048 473.006 305.314 473.07 306.829 473.014L308.245 472.962C310.526 472.874 312.961 472.928 313.617 475.584C314.26 478.184 312.493 480.189 308.901 481.077Z" fill="#D9D9D9"/>
<path d="M313.07 465.727L315.901 464.903L319.669 477.855L316.838 478.679L313.07 465.727Z" fill="#D9D9D9"/>
<path d="M322.752 477.031L318.331 464.287L322.373 462.885L325.987 467.424C326.835 468.517 327.677 469.591 328.507 470.691L328.634 470.646C328.594 469.294 328.577 467.953 328.573 466.588L328.599 460.725L332.659 459.317L337.08 472.061L334.349 473.009L332.391 467.365C331.905 465.963 331.401 464.567 330.926 463.141L330.835 463.173C330.884 464.726 330.909 466.267 330.922 467.834L331.017 474.164L328.796 474.935L324.926 469.893C324.009 468.661 323.05 467.423 322.151 466.185L322.042 466.223C322.553 467.636 323.014 469.026 323.501 470.428L325.464 476.09L322.752 477.031Z" fill="#D9D9D9"/>
<path d="M340.145 470.797L334.878 458.379L340.467 456.009C343.128 454.881 345.641 455.427 346.792 458.141C347.875 460.696 346.546 463.039 343.813 464.197L341.046 465.371L342.859 469.646L340.145 470.797ZM340.233 463.455L342.522 462.484C343.923 461.89 344.674 460.797 344.087 459.414C343.485 457.994 342.186 457.792 340.784 458.386L338.496 459.357L340.233 463.455Z" fill="#D9D9D9"/>
<path d="M352.67 465.376L346.752 453.254L349.402 451.961L354.305 462.004L360.279 459.088L361.294 461.166L352.67 465.376Z" fill="#D9D9D9"/>
<path d="M356.893 448.182L359.493 446.792L365.851 458.689L363.251 460.078L356.893 448.182Z" fill="#D9D9D9"/>
<path d="M374.061 454.39C370.511 456.489 366.926 455.497 364.69 451.715C362.444 447.916 363.333 444.346 366.883 442.248C369.935 440.443 372.88 440.918 374.825 443.261L372.204 444.81C371.061 443.673 369.563 443.372 368.07 444.255C366.145 445.392 365.817 447.601 367.327 450.156C368.837 452.71 370.967 453.511 372.958 452.334C374.567 451.383 374.938 449.663 374.176 447.92L376.764 446.39C378.212 449.407 377.313 452.468 374.061 454.39Z" fill="#D9D9D9"/>
<path d="M374.13 438.139L376.602 436.531L383.956 447.839L381.485 449.446L374.13 438.139Z" fill="#D9D9D9"/>
<path d="M379.356 437.56L378.024 435.67L387.441 429.029L388.774 430.919L385.294 433.373L391.735 442.507L389.309 444.217L382.868 435.083L379.356 437.56Z" fill="#D9D9D9"/>
<path d="M388.31 428.402L390.924 426.333L392.975 427.092C394.732 427.79 395.703 428.177 396.811 428.676L396.916 428.592C396.685 427.399 396.506 426.336 396.224 424.396L395.954 422.348L398.492 420.338L399.616 429.797L402.954 434.011L400.628 435.854L397.278 431.624L388.31 428.402Z" fill="#D9D9D9"/>
<path d="M488.688 425.175L497.228 415.098L502.41 419.49C504.426 421.198 504.799 423.122 503.457 424.705C502.237 426.145 500.346 426.274 498.978 425.262L498.892 425.363C500.115 426.547 500.225 427.556 499.308 429.104L497.311 432.482L495.051 430.567L496.643 427.959C497.4 426.745 497.249 426.222 495.997 425.16L493.953 423.428L490.891 427.041L488.688 425.175ZM495.283 421.859L497.572 423.799C498.608 424.677 499.834 424.603 500.688 423.595C501.481 422.659 501.321 421.534 500.256 420.632L497.967 418.692L495.283 421.859Z" fill="#D9D9D9"/>
<path d="M499.149 433.934L507.247 423.498L515.193 429.664L513.804 431.453L508.139 427.057L506.277 429.457L511.361 433.402L510.007 435.146L504.923 431.201L502.818 433.915L508.468 438.299L507.08 440.088L499.149 433.934Z" fill="#D9D9D9"/>
<path d="M509.066 441.542L516.724 430.779L519.076 432.453L512.732 441.371L518.036 445.145L516.723 446.99L509.066 441.542Z" fill="#D9D9D9"/>
<path d="M518.584 448.248L525.768 437.164L534.208 442.635L532.976 444.535L526.959 440.635L525.307 443.184L530.706 446.684L529.505 448.536L524.106 445.037L522.238 447.918L528.239 451.808L527.008 453.709L518.584 448.248Z" fill="#D9D9D9"/>
<path d="M530.785 455.984L528.219 454.503L539.123 445.547L542.211 447.33L540.033 461.326L537.386 459.797L537.996 456.554L533.273 453.826L530.785 455.984ZM535.057 452.285L538.423 454.229L538.857 451.93C539.061 450.784 539.308 449.641 539.554 448.498L539.44 448.432C538.563 449.233 537.67 450.024 536.761 450.807L535.057 452.285Z" fill="#D9D9D9"/>
<path d="M546.07 464.703C542.688 462.988 541.487 460.474 542.834 457.942L545.359 459.222C544.794 460.586 545.454 461.83 547.17 462.701C548.744 463.52 549.9 463.45 550.412 462.441C550.873 461.532 550.026 460.7 548.866 459.774L547.9 459.009C546.102 457.589 544.222 455.874 545.545 453.265C546.577 451.229 549.12 450.804 552.25 452.392C555.279 453.928 556.379 456.39 555.107 459.024L552.616 457.761C553.24 456.406 552.665 455.162 551.184 454.411C549.72 453.669 548.58 453.747 548.128 454.638C547.633 455.615 548.531 456.472 549.69 457.398L550.774 458.265C552.521 459.659 554.293 461.256 553.081 463.646C551.895 465.985 549.302 466.342 546.07 464.703Z" fill="#D9D9D9"/>
<path d="M553.564 468.079L558.88 455.986L568.087 460.034L567.176 462.107L560.612 459.221L559.389 462.002L565.28 464.592L564.391 466.613L558.501 464.023L557.118 467.167L563.666 470.045L562.754 472.118L553.564 468.079Z" fill="#D9D9D9"/>
<path d="M569.602 474.804L573.959 462.334L583.454 465.652L582.707 467.789L575.938 465.424L574.935 468.292L581.01 470.415L580.282 472.499L574.207 470.376L573.074 473.618L579.826 475.977L579.079 478.115L569.602 474.804Z" fill="#D9D9D9"/>
<path d="M586.81 470.579C586.45 471.947 586.053 473.306 585.675 474.67L584.287 479.67L581.596 478.923L585.128 466.195L588.201 467.048L590.142 473.462C590.517 474.721 590.879 475.957 591.24 477.409L591.373 477.426C591.73 475.998 592.068 474.779 592.406 473.561L593.783 468.597L596.511 469.354L592.979 482.082L589.979 481.249L588.219 475.239C587.773 473.744 587.344 472.254 586.929 470.573L586.81 470.579Z" fill="#D9D9D9"/>
<path d="M601.475 484.207C598.068 483.538 596.104 480.517 596.938 476.277C597.738 472.203 600.695 469.977 604.88 470.799C608.398 471.491 610.252 473.798 610.092 476.766L607.166 476.191C607.165 474.633 606.273 473.4 604.458 473.043C601.881 472.556 600.376 474.241 599.863 476.852C599.35 479.462 600.212 481.632 602.953 482.171C604.915 482.556 606.548 481.589 606.957 480.092L607.012 479.911L603.309 479.183L603.702 477.183L610.053 478.432L608.699 485.319L606.311 484.85L606.712 482.121L606.564 482.092C605.703 483.442 604.197 484.742 601.475 484.207Z" fill="#D9D9D9"/>
<path d="M613.288 472.588L616.15 472.965L614.424 486.061L611.561 485.684L613.288 472.588Z" fill="#D9D9D9"/>
<path d="M621.064 477.366C620.967 478.778 620.831 480.187 620.715 481.597L620.288 486.769L617.505 486.539L618.591 473.375L621.77 473.637L624.877 479.574C625.481 480.741 626.068 481.888 626.694 483.246L626.828 483.238C626.911 481.768 627.015 480.508 627.119 479.248L627.543 474.114L630.364 474.347L629.277 487.511L626.174 487.255L623.321 481.68C622.602 480.295 621.902 478.912 621.18 477.338L621.064 477.366Z" fill="#D9D9D9"/>
<path d="M632.568 487.614L632.714 474.406L642.771 474.517L642.746 476.781L635.576 476.702L635.542 479.74L641.976 479.811L641.952 482.019L635.518 481.948L635.48 485.382L642.631 485.461L642.606 487.725L632.568 487.614Z" fill="#D9D9D9"/>
<path d="M645.225 487.653L644.561 474.461L654.606 473.956L654.72 476.217L647.558 476.577L647.711 479.612L654.137 479.288L654.248 481.493L647.822 481.817L647.994 485.247L655.137 484.887L655.251 487.149L645.225 487.653Z" fill="#D9D9D9"/>
<path d="M657.876 486.93L656.406 473.803L663.157 473.047C665.782 472.753 667.438 473.801 667.669 475.864C667.879 477.74 666.676 479.203 665 479.505L665.015 479.636C666.715 479.56 667.524 480.172 668.022 481.901L669.109 485.672L666.165 486.001L665.36 483.053C664.996 481.67 664.512 481.42 662.881 481.603L660.218 481.901L660.745 486.608L657.876 486.93ZM659.989 479.857L662.971 479.523C664.321 479.372 665.108 478.43 664.961 477.117C664.824 475.898 663.896 475.242 662.509 475.398L659.527 475.732L659.989 479.857Z" fill="#D9D9D9"/>
<path d="M669.368 472.211L672.22 471.764L674.266 484.813L671.414 485.261L669.368 472.211Z" fill="#D9D9D9"/>
<path d="M678.139 474.577C678.441 475.96 678.705 477.351 678.988 478.737L680.025 483.822L677.289 484.38L674.648 471.438L677.773 470.8L682.418 475.63C683.324 476.582 684.209 477.518 685.19 478.647L685.316 478.602C684.984 477.167 684.732 475.928 684.479 474.69L683.449 469.642L686.223 469.076L688.863 482.019L685.812 482.641L681.513 478.087C680.435 476.959 679.376 475.827 678.243 474.518L678.139 474.577Z" fill="#D9D9D9"/>
<path d="M697.319 480.129C693.971 481.048 690.866 479.22 689.722 475.053C688.623 471.049 690.278 467.738 694.39 466.609C697.848 465.66 700.536 466.899 701.715 469.627L698.84 470.417C698.144 469.023 696.796 468.317 695.013 468.806C692.488 469.519 691.893 471.698 692.597 474.263C693.302 476.829 695.04 478.387 697.733 477.648C699.662 477.118 700.692 475.524 700.392 474.002L700.36 473.815L696.721 474.814L696.181 472.849L702.423 471.136L704.281 477.905L701.934 478.549L701.077 475.928L700.931 475.967C700.762 477.56 699.994 479.395 697.319 480.129Z" fill="#D9D9D9"/>
<path d="M760.559 451.754L758.114 453.426L754.753 439.722L757.697 437.708L769.375 445.724L766.852 447.45L764.19 445.498L759.689 448.577L760.559 451.754ZM759.071 446.302L762.279 444.107L760.394 442.722C759.449 442.042 758.525 441.326 757.6 440.609L757.491 440.684C757.835 441.821 758.162 442.968 758.474 444.126L759.071 446.302Z" fill="#D9D9D9"/>
<path d="M767.281 441.041L762.146 434.613L764.402 432.811L769.466 439.151C770.691 440.684 772.094 440.989 773.656 439.74C775.219 438.492 775.285 437.063 774.025 435.485L768.972 429.16L771.228 427.358L776.363 433.786C778.624 436.617 777.774 439.422 775.105 441.554C772.54 443.603 769.542 443.872 767.281 441.041Z" fill="#D9D9D9"/>
<path d="M773.548 428.329L771.985 426.691L780.147 418.9L781.711 420.537L778.694 423.417L786.251 431.334L784.149 433.34L776.592 425.424L773.548 428.329Z" fill="#D9D9D9"/>
<path d="M794.509 423.507C791.673 426.435 787.951 426.507 784.874 423.527C781.798 420.546 781.766 416.837 784.602 413.909C787.424 410.995 791.146 410.896 794.223 413.877C797.299 416.857 797.358 420.566 794.509 423.507ZM786.962 421.372C789.171 423.512 791.294 423.545 792.869 421.918C794.445 420.292 794.344 418.172 792.135 416.032C789.967 413.931 787.804 413.885 786.242 415.498C784.666 417.124 784.794 419.271 786.962 421.372Z" fill="#D9D9D9"/>
<path d="M800.744 416.601L790.748 407.967L793.486 404.797L798.776 406.872C800.03 407.382 801.271 407.88 802.513 408.405L802.6 408.305C801.902 407.178 801.231 406.05 800.558 404.895L797.705 399.913L800.456 396.728L810.452 405.363L808.602 407.505L804.175 403.681C803.075 402.731 801.963 401.796 800.862 400.819L800.8 400.891C801.604 402.183 802.381 403.478 803.159 404.799L806.344 410.118L804.839 411.86L799.087 409.485C797.706 408.89 796.285 408.311 794.916 407.702L794.842 407.788C795.968 408.736 797.041 409.688 798.141 410.637L802.582 414.474L800.744 416.601Z" fill="#D9D9D9"/>
<path d="M813.485 401.462L811.689 403.819L804.191 391.865L806.353 389.029L819.959 392.968L818.106 395.399L814.966 394.382L811.66 398.72L813.485 401.462ZM810.358 396.755L812.715 393.663L810.49 392.94C809.379 392.592 808.276 392.202 807.173 391.813L807.093 391.918C807.776 392.889 808.448 393.876 809.108 394.877L810.358 396.755Z" fill="#D9D9D9"/>
<path d="M810.43 387.417L808.566 386.131L814.976 376.843L816.839 378.13L814.471 381.562L823.478 387.778L821.828 390.17L812.82 383.954L810.43 387.417Z" fill="#D9D9D9"/>
<path d="M827.061 382.447L815.802 375.539L821.062 366.966L822.992 368.15L819.242 374.262L821.832 375.851L825.197 370.366L827.079 371.521L823.714 377.006L826.641 378.802L830.381 372.706L832.311 373.89L827.061 382.447Z" fill="#D9D9D9"/>
</g>
<path d="M239.4 267.96C244.81 267.96 247.78 265.11 247.78 259.19C247.78 253.27 244.77 250.42 239.4 250.42H234.7V267.96H239.4ZM232 270.4V248H239.39C246.27 248 250.53 251.87 250.53 259.2C250.53 266.53 246.21 270.4 239.39 270.4H232ZM254.63 270.4V248H270.34V250.43H257.32V257.6H269.03V260.03H257.32V267.97H270.18V270.4H254.63ZM280.57 270.4L272.06 248H274.88L278.59 258.02C279.74 261.12 280.93 264.26 282.08 267.4H282.27C283.49 264.26 284.67 261.13 285.85 257.96L289.63 248.01H292.45L283.75 270.41H280.58L280.57 270.4Z" fill="white"/>
<path d="M38 278.5C34.3617 250.234 34.6661 233.909 44 203" stroke="#333333"/>
<path d="M688.599 56.3079C689.162 55.7119 689.608 54.994 689.8 54.1242C690.334 51.6979 688.798 49.2962 686.372 48.7624C683.945 48.2286 681.544 49.764 681.01 52.1904C680.476 54.6167 682.012 57.0184 684.438 57.5522C685.308 57.7436 686.146 57.6401 686.924 57.3792L689.27 61.1112L691.002 60.0042L688.599 56.3079ZM684.871 55.5836C683.543 55.2916 682.686 53.9511 682.978 52.6235C683.271 51.2959 684.611 50.4389 685.939 50.731C687.266 51.023 688.123 52.3635 687.831 53.6911C687.539 55.0187 686.199 55.8757 684.871 55.5836ZM686.328 47.2169C685.641 47.0658 684.868 47.0878 684.213 47.2315L683.845 46.2866L678.807 51.5137L676.632 47.4356L671.813 52.3267L670.462 50.8297L677.083 44.079L679.258 48.1571L684.549 42.6498L686.328 47.2169ZM688.781 48.2845C688.2 47.8688 687.554 47.5346 686.877 47.3377L693.6 40.5614L694.95 42.0584L688.781 48.2845Z" fill="#00DF66"/>
<path d="M122.947 85.7413C126.556 86.7869 129.248 89.7892 129.925 93.4658C130.067 94.2082 129.812 94.9198 129.278 95.3769L118.735 104.397C118.2 104.854 117.428 104.96 116.746 104.741C112.447 103.176 109.756 98.8769 110.213 94.2913C110.67 89.7057 114.212 86.0584 118.783 85.417L118.151 87.562C114.728 88.3926 112.3 91.3952 112.124 94.9388C111.948 98.4824 114.126 101.677 117.424 102.865L127.968 93.8453C127.441 91.2111 125.684 89.013 123.209 87.9227L122.947 85.7413ZM119.951 97.3103C119.423 97.2692 118.909 97.0297 118.574 96.6379C118.209 96.2105 118.052 95.6663 118.093 95.1376L120.883 85.3478L122.089 95.482C122.047 96.0107 121.778 96.4884 121.386 96.8236C120.994 97.1588 120.48 97.3515 119.951 97.3103Z" fill="#00DF66"/>
<path d="M125.949 428.5C124.975 427.937 124.649 426.72 125.211 425.746C125.75 424.813 126.967 424.487 127.941 425.049C128.875 425.588 129.201 426.805 128.662 427.738C128.099 428.713 126.883 429.039 125.949 428.5ZM115.886 438.711L110.517 434.042L111.849 432.483L115.62 435.797L121.055 429.571L119.12 429.266L117.409 432.229L115.704 431.245L118.048 427.185L123.655 427.879C123.899 428.02 124.108 428.032 124.392 428.196C125.001 428.548 125.341 429.177 125.362 429.892L125.417 431.765C125.404 433.381 126.333 435.054 127.957 435.991L126.949 437.737C125.041 436.635 123.828 434.799 123.441 432.843L121.414 435.137L122.256 437.896L118.506 444.392L116.76 443.384L119.76 438.188L118.918 435.428L115.886 438.711Z" fill="#00DF66"/>
<path d="M466.573 117.499C467.51 116.515 469.101 116.476 470.085 117.413L473.718 120.872C477.112 124.104 477.244 129.472 474.012 132.867C470.779 136.262 465.379 136.427 461.984 133.195L455.806 127.312C454.821 126.374 454.782 124.784 455.752 123.765C455.849 123.663 455.978 123.528 456.109 123.458L455.702 123.07C454.717 122.133 454.678 120.542 455.648 119.524C455.81 119.354 455.973 119.251 456.169 119.113C455.748 118.195 455.887 117.098 456.631 116.317C457.471 115.434 458.827 115.302 459.805 115.974C459.9 115.806 460.03 115.67 460.159 115.534C461.096 114.55 462.687 114.511 463.671 115.448L466.251 117.905C466.314 117.771 466.444 117.635 466.573 117.499ZM472.328 122.331L468.695 118.873C468.492 118.679 468.193 118.653 467.999 118.857C467.805 119.06 467.813 119.392 468.017 119.586L471.276 122.689C470.144 123.877 470.191 125.799 471.379 126.93L469.99 128.39C468.496 126.968 468.113 124.855 468.731 123.049L462.281 116.908C462.078 116.714 461.779 116.688 461.585 116.892C461.391 117.095 461.399 117.427 461.603 117.621L466.321 122.114L464.931 123.574L458.753 117.691C458.549 117.497 458.284 117.503 458.09 117.707C457.896 117.911 457.87 118.21 458.074 118.403L464.253 124.286L462.863 125.746L457.771 120.898C457.567 120.704 457.302 120.71 457.108 120.914C456.914 121.118 456.888 121.417 457.092 121.611L462.897 127.138L461.507 128.598L457.874 125.139C457.671 124.945 457.406 124.952 457.212 125.155C457.018 125.359 456.992 125.658 457.196 125.852L463.374 131.735C465.954 134.191 470.063 134.091 472.552 131.477C475.008 128.897 474.908 124.788 472.328 122.331Z" fill="#00DF66"/>
<path d="M841.343 350.67C841.664 350.266 841.588 349.608 841.148 349.258C840.744 348.937 840.085 349.013 839.765 349.416C839.415 349.857 839.49 350.515 839.894 350.836C840.335 351.186 840.993 351.11 841.343 350.67ZM842.885 351.894C841.835 353.216 839.991 353.427 838.67 352.378C837.385 351.357 837.137 349.484 838.186 348.163C839.207 346.878 841.117 346.659 842.401 347.679C843.723 348.729 843.905 350.61 842.885 351.894ZM839.157 359.828L841.728 360.434L844.096 359.262L843.454 361.805L844.626 364.173L842.083 363.53L839.752 364.731L840.358 362.16L839.157 359.828ZM834.537 359.691L832.834 360.553L833.289 358.699L832.463 357.026L834.251 357.488L835.954 356.626L835.499 358.479L836.354 360.116L834.537 359.691ZM836.629 354.947C836.555 354.889 836.445 354.801 836.401 354.706L834.002 355.315L832.17 350.687L834.304 349.508C834.339 349.238 834.346 349.003 834.418 348.761L832.721 347.054L835.841 343.127L837.888 344.393C838.107 344.268 838.363 344.172 838.59 344.113L839.255 341.768L844.177 342.505L844.119 344.914C844.23 345.001 844.34 345.088 844.413 345.147C844.523 345.234 844.633 345.322 844.707 345.38L847.077 344.808L848.908 349.436L846.775 350.614C846.732 350.82 846.696 351.091 846.66 351.362L848.357 353.069L845.238 356.996L843.191 355.729C842.935 355.825 842.745 355.914 842.489 356.01L841.824 358.355L836.902 357.618L836.952 355.144C836.849 355.122 836.739 355.034 836.629 354.947ZM834.706 351.564L835.231 352.939L837.045 352.464C837.288 352.836 837.552 353.106 837.919 353.398C838.249 353.66 838.572 353.857 838.99 354.009L838.938 355.883L840.396 356.083L840.887 354.259C841.685 354.234 842.518 353.938 843.19 353.394L844.767 354.348L845.671 353.21L844.349 351.86C844.727 351.083 844.863 350.233 844.735 349.414L846.372 348.559L845.811 347.155L843.997 347.63C843.791 347.287 843.49 346.987 843.159 346.725C842.829 346.463 842.47 346.237 842.088 346.114L842.141 344.24L840.683 344.04L840.184 345.798C839.357 345.86 838.56 346.185 837.889 346.729L836.275 345.746L835.371 346.884L836.693 348.234C836.315 349.011 836.179 349.861 836.336 350.643L834.706 351.564Z" fill="#00DF66"/>
<path d="M728.042 470.268C728.466 468.684 730.131 467.722 731.716 468.147C732.531 468.365 733.171 468.876 733.523 469.553C734.352 470.989 733.757 475.925 733.757 475.925C733.757 475.925 729.185 473.972 728.356 472.536C727.946 471.893 727.823 471.083 728.042 470.268ZM731.801 470.548C731.668 470.318 731.466 470.167 731.194 470.094C730.651 469.948 730.134 470.247 729.989 470.79C729.916 471.062 729.946 471.312 730.078 471.542C730.277 471.886 731.967 472.825 731.967 472.825C731.967 472.825 732 470.892 731.801 470.548ZM729.689 458.869L732.21 459.059C732.88 459.093 733.499 459.501 733.83 460.075L736.681 465.013L731.323 465.809L726.214 468.759L722.845 473.001L719.949 468.051C719.618 467.477 719.619 466.75 719.924 466.152L721.02 463.874C716.545 456.123 719.869 451.87 719.869 451.87C719.869 451.87 725.214 451.118 729.689 458.869ZM724.376 467.83C723.716 467.217 722.989 466.488 722.365 465.738L721.717 467.069L723.109 469.48L724.376 467.83ZM733.5 463.481L732.108 461.07L730.632 460.965C730.969 461.881 731.236 462.874 731.437 463.753L733.5 463.481ZM727.955 459.908C724.64 454.167 721.062 453.937 721.062 453.937C721.062 453.937 719.473 457.151 722.788 462.892C723.716 464.499 725.417 466.119 725.978 466.561L729.537 464.506C729.39 463.787 728.883 461.516 727.955 459.908ZM726.523 460.544C726.244 461.585 725.095 462.248 724.054 461.969C723.013 461.69 722.35 460.542 722.629 459.5C722.908 458.459 724.056 457.796 725.097 458.075C726.139 458.354 726.802 459.502 726.523 460.544Z" fill="#00DF66"/>
<path d="M433.08 413.206L428.294 412.76L428.493 410.781L433.278 411.228L433.08 413.206ZM417.88 409.649L418.515 403.317L424.847 403.953L422.126 406.178L426.161 411.113L425.314 419.556L423.335 419.358L424.133 411.742L420.602 407.424L417.88 409.649Z" fill="#00DF66"/>
</g>
<defs>
<clipPath id="clip0_4644_7340">
<rect width="900.02" height="517.98" fill="white"/>
</clipPath>
</defs>
</svg>
