<svg fill="none" xmlns="http://www.w3.org/2000/svg" viewBox="0 0 86 29"><path d="M12.663 28.258c-3.547 0-5.859-1.751-5.859-4.608 0-2.458 1.666-3.963 5.828-4.884l2.251-.522c1.88-.43 2.62-1.014 2.62-1.936 0-1.168-.956-2.058-2.62-2.058-1.664 0-2.677.89-2.843 2.162a.452.452 0 0 1-.452.388H7.622a.453.453 0 0 1-.456-.487c.277-3.043 3.181-5.013 7.81-5.013 4.63 0 7.37 1.997 7.37 5.991v4.547c0 1.843.394 2.823 1.957 2.962a.457.457 0 0 1 .417.453v2.118c0 .23-.173.424-.401.453-2.354.303-3.971-.139-4.89-1.209a1.56 1.56 0 0 0-2.25-.107c-1.08 1.042-2.648 1.75-4.518 1.75h.002Zm1.203-2.95c2.065 0 3.64-2.088 3.64-4.485a.457.457 0 0 0-.672-.403c-.365.197-.838.375-1.395.526l-1.325.4c-1.727.461-2.468 1.136-2.468 2.152 0 1.168.771 1.812 2.221 1.812l-.001-.002ZM36.92 11.815h3.546c.35 0 .634.283.634.634v14.684c0 .35-.283.634-.634.634H36.92a.634.634 0 0 1-.633-.634c0-1.24-.651-.835-1.063-.468-1.223 1.098-2.759 1.593-4.365 1.593-3.342 0-5.335-2.085-5.335-7.302V12.45c0-.351.284-.634.634-.634h3.546c.35 0 .634.283.634.634v8.692c0 2.455.946 3.309 2.663 3.309 2.085 0 3.395-1.234 3.286-4.167v-7.834c0-.351.283-.634.633-.634ZM49.648 28.258c-4.176-.061-6.939-3.448-6.939-8.557 0-5.11 2.763-8.436 6.94-8.436 1.43 0 2.845.585 3.881 1.552a.61.61 0 0 0 1.03-.442V4.2a.61.61 0 0 1 .61-.612h3.602a.61.61 0 0 1 .61.612v22.95a.61.61 0 0 1-.61.613H55.17a.61.61 0 0 1-.61-.612.61.61 0 0 0-1.031-.44 5.741 5.741 0 0 1-3.88 1.544v.002Zm1.474-2.956c2.18 0 3.623-2.247 3.623-5.57 0-3.325-1.444-5.511-3.622-5.511-2.18 0-3.531 2.217-3.531 5.51 0 3.294 1.38 5.571 3.53 5.571ZM65.68 27.818h-2.358a1.236 1.236 0 0 1-1.234-1.236V13.05c0-.682.553-1.236 1.234-1.236h2.358c.681 0 1.234.554 1.234 1.236v13.532c0 .682-.553 1.236-1.234 1.236ZM77.444 28.258c-5.183 0-8.556-3.378-8.556-8.51 0-5.13 3.373-8.448 8.556-8.448C82.627 11.3 86 14.648 86 19.75c0 5.1-3.342 8.509-8.556 8.509Zm0-2.95c2.239 0 3.711-2.242 3.711-5.56 0-3.317-1.472-5.498-3.71-5.498-2.24 0-3.712 2.212-3.712 5.499 0 3.286 1.442 5.56 3.711 5.56ZM0 27.247V4.16c0-.313.3-.57.667-.57H4.16c.367 0 .667.257.667.57v23.087c0 .313-.3.57-.667.57H.667c-.367 0-.667-.257-.667-.57Z" fill="#000"/><ellipse cx="64.501" cy="6.015" rx="2.413" ry="2.423" fill="#000"/><ellipse cx="67.66" cy="2.423" rx="2.413" ry="2.423" fill="#000"/></svg>