<svg width="189" height="36" viewBox="0 0 189 36" fill="none" xmlns="http://www.w3.org/2000/svg">
<path d="M34.4883 27.7371V0.581897H39.9969V27.7371H34.4883Z" fill="white"/>
<path d="M63.4767 18.8534H48.1922C48.1922 20.5216 48.7353 21.8405 49.744 22.7716C50.7526 23.7414 52.0328 24.2069 53.6233 24.2069C54.8647 24.2069 55.9121 23.8966 56.7655 23.2759C57.619 22.6552 58.2009 21.8017 58.4724 20.7931H63.2828C63.05 22.4224 62.4681 23.819 61.4983 24.944C60.4897 26.1078 59.3259 26.9612 57.9293 27.5043C56.5328 28.0862 55.0974 28.3578 53.6233 28.3578C50.2871 28.3578 47.6879 27.4267 45.7871 25.5647C43.8474 23.7026 42.9164 21.0647 42.9164 17.6509C42.9164 15.556 43.3431 13.7328 44.1966 12.1034C45.05 10.5129 46.2526 9.27155 47.8043 8.4181C49.356 7.56465 51.1793 7.09914 53.2741 7.09914C55.3302 7.09914 57.1535 7.56465 58.7052 8.4569C60.2569 9.38793 61.4207 10.5905 62.2353 12.1422C63.05 13.694 63.4767 15.4009 63.4767 17.2629V18.8534ZM49.7052 12.4526C48.7741 13.2672 48.2698 14.3922 48.1922 15.8664H58.0457C57.9293 14.431 57.425 13.306 56.5328 12.4914C55.6405 11.6767 54.5155 11.25 53.1578 11.25C51.7612 11.25 50.5974 11.6767 49.7052 12.4526Z" fill="white"/>
<path d="M67.47 18.5431C68.789 17.5345 70.845 17.0302 73.5605 17.0302C76.0433 17.069 77.7502 16.875 78.7588 16.4095C79.7286 15.9828 80.2329 15.2457 80.2329 14.2371C80.2329 13.4612 79.8838 12.7629 79.2243 12.1422C78.526 11.5603 77.4786 11.25 76.0433 11.25C74.5303 11.25 73.3665 11.6767 72.5519 12.4526C71.6984 13.2672 71.2329 14.3534 71.1165 15.6724H65.6467C65.7243 14.1207 66.151 12.6853 66.9269 11.3664C67.7028 10.0862 68.8665 9.03879 70.4183 8.26293C71.9312 7.48707 73.7933 7.09914 76.0045 7.09914C79.2243 7.09914 81.6295 7.83621 83.2588 9.31034C84.8493 10.7845 85.664 12.6466 85.664 14.9353V27.7371H80.3881L80.2329 21.4914H80.039C79.7674 23.7026 78.9527 25.4095 77.5562 26.5733C76.1596 27.7759 74.3752 28.3578 72.2415 28.3578C70.2243 28.3578 68.5562 27.8922 67.3148 26.9612C66.0734 26.0302 65.4528 24.6336 65.4528 22.8103C65.4528 21.0259 66.1122 19.5905 67.47 18.5431ZM71.8148 24.1293C72.3579 24.556 73.1338 24.75 74.1424 24.75C75.2286 24.75 76.2372 24.5172 77.1683 23.9741C78.0993 23.4698 78.8364 22.7716 79.3795 21.9181C79.9226 21.0647 80.2329 20.1724 80.2329 19.2026V16.1379H80.039C79.8838 16.9914 79.6122 17.6897 79.2243 18.194C78.8364 18.7371 78.1769 19.125 77.3234 19.3966C76.47 19.7069 75.2674 19.9009 73.7157 19.9784C72.8622 20.056 72.2027 20.2888 71.7372 20.6767C71.2717 21.1034 71.039 21.6466 71.039 22.3448C71.039 23.1207 71.2717 23.7026 71.8148 24.1293Z" fill="white"/>
<path d="M106.878 8.4181C108.158 9.27155 109.167 10.5129 109.904 12.1034C110.602 13.7328 110.99 15.5948 110.99 17.7284C110.99 19.9009 110.602 21.7629 109.904 23.3534C109.167 24.9828 108.158 26.2241 106.878 27.0776C105.598 27.931 104.123 28.3578 102.494 28.3578C100.787 28.3578 99.2743 27.8534 97.9553 26.806C96.6363 25.7586 95.6665 24.2069 95.1234 22.1509H94.8906V34.875H89.382V7.71983H94.7355L94.8906 13.3448H95.1234C95.6665 11.2888 96.6363 9.73707 97.9553 8.68966C99.2743 7.64224 100.787 7.09914 102.494 7.09914C104.123 7.09914 105.598 7.56465 106.878 8.4181ZM104.007 22.7328C104.938 21.5302 105.442 19.8621 105.442 17.7284C105.442 15.6336 104.938 13.9655 104.007 12.7629C103.037 11.5603 101.757 10.9397 100.167 10.9397C98.576 10.9397 97.2958 11.4828 96.326 12.5302C95.3562 13.6164 94.8906 14.9353 94.8906 16.5647V18.931C94.8906 20.5603 95.3562 21.8793 96.326 22.9267C97.2958 24.0129 98.576 24.5172 100.167 24.5172C101.757 24.5172 103.037 23.9353 104.007 22.7328Z" fill="white"/>
<path d="M121.438 4.92673C120.972 5.31466 120.778 5.97414 120.778 6.94397V7.71983H126.791V11.1336H120.895V27.7371H115.386V11.1336H111.701V7.71983H115.386V6.94397C115.386 4.57759 115.968 2.8319 117.209 1.7069C118.451 0.581896 120.39 0 123.028 0C124.037 0 125.278 0.0387923 126.791 0.0775849V4.46121C125.395 4.42241 124.425 4.38362 123.959 4.38362C122.718 4.38362 121.865 4.57759 121.438 4.92673Z" fill="white"/>
<path d="M135.091 15.4009C135.401 13.3836 135.828 11.7931 136.449 10.6293C137.031 9.50431 137.884 8.68966 139.009 8.14655C140.134 7.64224 141.686 7.37069 143.664 7.37069V12.0259C141.492 12.181 139.785 12.4526 138.582 12.9181C137.341 13.3836 136.449 14.1207 135.867 15.1293C135.246 16.1379 134.936 17.6121 134.858 19.4741V27.7371H129.35V7.71983H134.703L134.858 15.4009H135.091Z" fill="white"/>
<path d="M149.648 27.0776C147.98 26.2241 146.661 24.944 145.691 23.3147C144.721 21.6853 144.256 19.8233 144.256 17.6509C144.256 15.556 144.721 13.7328 145.691 12.1034C146.661 10.5129 147.98 9.27155 149.648 8.4181C151.316 7.56465 153.178 7.09914 155.195 7.09914C157.213 7.09914 159.036 7.56465 160.704 8.4181C162.333 9.27155 163.652 10.5129 164.622 12.1034C165.592 13.7328 166.096 15.556 166.096 17.6509C166.096 19.8233 165.592 21.6853 164.661 23.3147C163.691 24.944 162.372 26.2241 160.704 27.0776C159.036 27.931 157.213 28.3578 155.195 28.3578C153.178 28.3578 151.316 27.931 149.648 27.0776ZM159.075 22.5C160.006 21.4138 160.51 19.7845 160.51 17.6509C160.51 15.5948 160.006 14.0043 159.075 12.9181C158.144 11.8319 156.825 11.2888 155.195 11.2888C153.489 11.2888 152.17 11.8319 151.239 12.9181C150.307 14.0043 149.842 15.5948 149.842 17.6509C149.842 19.7845 150.307 21.4138 151.239 22.5C152.17 23.625 153.489 24.1681 155.195 24.1681C156.825 24.1681 158.144 23.625 159.075 22.5Z" fill="white"/>
<path d="M188.849 8.53448L181.75 7.2931L181.711 7.56465C183.224 7.95259 184.465 8.68966 185.396 9.77586C186.327 10.8621 186.832 12.1422 186.832 13.6552C186.832 15.75 186.017 17.3793 184.465 18.5819C182.875 19.7845 180.702 20.3664 177.909 20.3664C176.823 20.3664 175.776 20.2888 174.806 20.056C174.185 20.25 173.759 20.4828 173.526 20.7155C173.293 20.9871 173.177 21.3362 173.177 21.7241C173.177 22.2284 173.371 22.6164 173.836 22.9267C174.263 23.2371 174.884 23.3534 175.659 23.3534H181.168C183.651 23.3534 185.513 23.8578 186.793 24.7888C188.073 25.7586 188.733 27.3491 188.733 29.5216C188.733 31.694 187.84 33.2845 186.056 34.3707C184.271 35.4569 181.672 36 178.22 36C174.496 36 171.858 35.6509 170.306 34.875C168.715 34.0991 167.94 32.9353 167.94 31.3836C167.94 29.2112 169.724 27.931 173.371 27.6207V27.4655C171.819 27.3103 170.616 26.8836 169.802 26.1853C168.987 25.4871 168.599 24.6724 168.599 23.7026C168.599 22.5 169.065 21.6078 169.996 20.9871C170.927 20.3664 172.207 20.056 173.836 19.9784V19.8233C172.246 19.3578 171.043 18.5819 170.19 17.4957C169.336 16.4483 168.948 15.1681 168.948 13.6552C168.948 11.9095 169.569 10.4741 170.81 9.34914C172.052 8.22414 174.146 7.37069 177.172 6.82759C181.013 6.12931 184.892 5.31466 188.849 4.42242V8.53448ZM180.741 11.7155C180.043 11.2112 179.112 10.9397 177.909 10.9397C176.668 10.9397 175.737 11.2112 175.077 11.7155C174.379 12.2198 174.069 12.8793 174.069 13.6552C174.069 14.5086 174.379 15.2069 175.077 15.75C175.737 16.2931 176.668 16.5259 177.909 16.5259C179.112 16.5259 180.043 16.2931 180.741 15.75C181.401 15.2069 181.75 14.5086 181.75 13.6552C181.75 12.8793 181.401 12.2198 180.741 11.7155ZM174.496 27.5043C173.254 27.931 172.672 28.6681 172.672 29.6767C172.672 30.4526 173.099 31.0733 173.991 31.4612C174.845 31.8879 176.28 32.0819 178.22 32.0819C180.237 32.0819 181.634 31.8879 182.487 31.5C183.34 31.1121 183.767 30.4526 183.767 29.5991C183.767 28.8621 183.496 28.319 183.03 27.9698C182.526 27.6595 181.75 27.4655 180.664 27.4655L174.496 27.5043Z" fill="white"/>
<path fill-rule="evenodd" clip-rule="evenodd" d="M0 27.4496C0 12.6412 12.0112 0.636719 26.8277 0.636719H29.0948V8.94493H26.8277C16.6022 8.94493 8.31281 17.2298 8.31281 27.4496H0Z" fill="white"/>
</svg>
