<?xml version="1.0" encoding="UTF-8" standalone="no"?><!DOCTYPE svg PUBLIC "-//W3C//DTD SVG 1.1//EN" "http://www.w3.org/Graphics/SVG/1.1/DTD/svg11.dtd"><svg width="100%" height="100%" viewBox="0 0 1084 134" version="1.1" xmlns="http://www.w3.org/2000/svg" xmlns:xlink="http://www.w3.org/1999/xlink" xml:space="preserve" xmlns:serif="http://www.serif.com/" style="fill-rule:evenodd;clip-rule:evenodd;stroke-linejoin:round;stroke-miterlimit:2;"><g id="MEM-Logo" serif:id="MEM Logo"><path d="M72.374,34.319c-3.616,-3.053 -7.232,-6.058 -10.801,-9.158c-1.644,-1.456 -3.241,-2.911 -5.072,-4.132c-3.193,-2.114 -6.669,-3.429 -10.426,-3.945c-6.574,-0.939 -12.679,0.422 -18.174,4.179c-4.32,2.959 -7.467,6.951 -9.392,11.835c-0.845,2.113 -1.268,4.32 -1.55,6.621c-0.516,4.321 0.329,8.359 1.832,12.351c0.751,2.02 1.925,3.71 3.381,5.26c1.691,1.784 3.381,3.616 5.119,5.354c0.751,0.751 0.61,1.174 -0.188,1.69c-2.959,1.926 -5.682,4.133 -8.312,6.481c-0.986,0.845 -1.926,1.784 -2.865,2.677c-0.563,0.516 -0.845,0.516 -1.409,-0.094c-1.597,-1.738 -3.24,-3.428 -4.884,-5.119c-2.771,-2.865 -4.649,-6.152 -6.199,-9.768c-1.409,-3.193 -2.254,-6.528 -2.864,-9.956c-0.517,-2.912 -0.705,-5.87 -0.47,-8.782c0.517,-6.011 1.972,-11.74 4.837,-17.094c2.536,-4.743 5.87,-8.876 9.909,-12.351c4.32,-3.71 9.204,-6.481 14.652,-8.171c3.006,-0.939 6.058,-1.55 9.204,-1.785c1.55,-0.141 3.147,-0.188 4.697,-0.188c5.165,0.047 10.143,1.128 14.98,3.1c4.321,1.785 8.266,4.133 11.694,7.232c0.141,0.141 0.329,0.188 0.47,0.282c0.704,0.469 1.08,1.69 2.066,1.362c0.798,-0.282 1.362,-1.127 2.019,-1.691c4.79,-4.273 10.332,-7.185 16.484,-8.923c3.146,-0.892 6.34,-1.408 9.58,-1.549c5.776,-0.235 11.365,0.657 16.718,2.723c4.086,1.55 7.843,3.757 11.271,6.481c3.522,2.818 6.528,6.058 9.064,9.768c1.972,2.959 3.71,6.058 4.696,9.439c0.892,3.053 1.737,6.152 1.925,9.393c0.047,1.221 0.141,2.442 0.188,3.663c0.141,4.32 -0.516,8.547 -1.644,12.726c-0.986,3.757 -2.582,7.28 -4.837,10.473c-1.127,1.55 -2.442,3.005 -3.71,4.414c-1.361,1.503 -2.864,2.818 -4.132,4.415c-0.423,0.563 -0.799,0.516 -1.268,-0c-3.287,-3.475 -7.091,-6.293 -10.895,-9.111c-1.174,-0.892 -1.174,-0.845 -0.235,-1.878c2.113,-2.348 4.227,-4.697 6.387,-7.045c1.268,-1.408 1.972,-3.24 2.583,-4.978c0.892,-2.535 1.408,-5.165 1.408,-7.936c0.047,-5.589 -1.455,-10.66 -4.743,-15.169c-4.038,-5.494 -9.345,-9.016 -16.108,-10.331c-5.588,-1.08 -10.895,-0.282 -15.966,2.113c-2.255,1.08 -4.274,2.583 -6.199,4.274c-2.63,2.348 -5.354,4.555 -7.984,6.903c-1.315,1.174 -2.63,2.301 -3.945,3.475c-0.328,0.188 -0.563,0.423 -0.892,0.47Z" style="fill:#154d8e;"/><path d="M194.615,53.244l0,48.747l-12.069,-0l0,-69.034c0.282,-0.235 0.611,-0.141 0.939,-0.141l11.036,-0c0.705,-0 1.127,0.141 1.55,0.798c5.495,8.547 10.989,17.094 16.531,25.641c1.268,1.973 2.489,3.992 3.804,6.058c1.361,-1.643 2.348,-3.428 3.475,-5.165c4.367,-6.669 8.688,-13.431 13.008,-20.147c1.456,-2.207 2.865,-4.461 4.227,-6.715c0.188,-0.329 0.375,-0.47 0.751,-0.47l12.586,-0l-0,69.128l-12.257,-0l-0,-48.982c-1.221,1.832 -2.301,3.382 -3.381,4.931c-5.495,8.219 -10.989,16.484 -16.531,24.702c-0.47,0.658 -0.939,1.315 -1.409,1.973c-0.516,0.751 -0.845,0.704 -1.362,-0.047c-2.536,-3.804 -5.072,-7.608 -7.607,-11.412c-4.321,-6.481 -8.688,-13.008 -13.291,-19.865Z" style="fill:#154d8e;"/><path d="M346.114,53.338l-0,48.606l-12.069,-0l-0,-68.987c0.187,-0.235 0.469,-0.141 0.704,-0.141l11.506,-0c0.563,-0 0.939,0.188 1.268,0.657c5.541,8.594 11.083,17.188 16.624,25.829c1.268,1.926 2.442,3.945 3.71,5.964c0.704,-0.563 1.033,-1.314 1.503,-2.019c5.025,-7.702 10.003,-15.45 14.981,-23.199c1.455,-2.254 2.911,-4.508 4.32,-6.809c0.141,-0.235 0.235,-0.423 0.564,-0.423l12.773,-0l0,69.128l-12.257,-0l0,-48.606c-0.047,-0.047 -0.141,-0.047 -0.188,-0.094c-1.08,1.597 -2.16,3.147 -3.24,4.743c-5.494,8.219 -10.989,16.484 -16.484,24.702c-0.422,0.611 -0.845,1.221 -1.268,1.785c-0.61,0.892 -0.892,0.892 -1.502,-0c-3.898,-5.823 -7.749,-11.647 -11.647,-17.47c-2.864,-4.32 -5.776,-8.641 -8.641,-12.961c-0.188,-0.141 -0.375,-0.329 -0.657,-0.705Z" style="fill:#154d8e;"/><path d="M543.729,75.974c6.293,8.782 12.398,17.376 18.596,26.063l-13.759,0c-0.658,0 -1.033,-0.187 -1.456,-0.751c-4.649,-6.668 -9.299,-13.29 -13.995,-19.912c-0.469,-0.704 -1.127,-1.315 -1.502,-2.066c-0.517,-1.08 -1.315,-1.221 -2.396,-1.221c-4.414,0.047 -8.781,0.047 -13.29,0.047l0,23.81l-12.398,-0l0,-69.128l28.412,-0c4.462,-0 8.923,0.235 13.197,1.597c7.091,2.301 12.257,6.762 14.182,14.135c1.503,5.776 1.174,11.506 -1.691,16.953c-1.878,3.522 -4.602,6.199 -8.124,8.125c-1.832,0.986 -3.663,1.878 -5.776,2.348Zm-27.755,-31.84c-0.188,2.019 -0.141,22.119 0.094,23.011l15.732,-0c2.067,-0 4.086,-0.047 6.105,-0.423c2.677,-0.516 5.072,-1.69 6.904,-3.663c1.972,-2.113 2.677,-4.79 2.677,-7.748c-0,-4.837 -2.677,-8.547 -7.279,-10.05c-2.161,-0.705 -4.415,-1.033 -6.622,-1.08c-5.87,-0.094 -11.694,-0.047 -17.611,-0.047Z" style="fill:#154d8e;"/><path d="M488.83,65.173c0.188,3.099 0.047,6.152 -0.469,9.157c-0.47,2.583 -1.221,5.119 -2.301,7.561c-1.738,3.992 -4.086,7.655 -7.138,10.707c-3.757,3.757 -8.172,6.669 -13.244,8.5c-3.616,1.268 -7.326,1.926 -11.13,2.114c-6.339,0.328 -12.304,-0.705 -18.033,-3.429c-3.146,-1.456 -5.917,-3.381 -8.5,-5.682c-3.146,-2.818 -5.588,-6.105 -7.467,-9.815c-1.878,-3.71 -3.099,-7.608 -3.616,-11.74c-0.188,-1.55 -0.188,-3.1 -0.329,-4.65c-0.141,-1.925 0.141,-3.944 0.423,-5.87c0.61,-4.039 1.831,-7.889 3.757,-11.459c1.315,-2.395 2.865,-4.602 4.649,-6.715c3.053,-3.569 6.763,-6.293 10.942,-8.359c3.475,-1.738 7.138,-2.865 11.036,-3.288c2.254,-0.234 4.509,-0.516 6.81,-0.422c6.574,0.328 12.773,1.878 18.456,5.447c2.395,1.503 4.649,3.241 6.574,5.307c3.241,3.475 5.777,7.42 7.467,11.928c1.174,3.428 1.879,6.998 2.113,10.708Zm-59.312,2.535c-0.047,1.409 0.094,3.053 0.422,4.697c1.081,5.776 3.71,10.66 8.313,14.323c6.48,5.166 13.806,6.434 21.696,4.086c4.508,-1.362 8.124,-4.086 10.942,-7.796c3.006,-3.898 4.602,-8.406 4.978,-13.243c0.423,-5.542 -0.704,-10.801 -3.616,-15.638c-2.959,-4.884 -7.232,-8.172 -12.586,-10.003c-3.757,-1.268 -7.702,-1.456 -11.599,-0.658c-5.495,1.08 -10.191,3.804 -13.572,8.359c-3.335,4.603 -5.119,9.815 -4.978,15.873Z" style="fill:#154d8e;"/><path d="M280.414,91.048l39.307,0l0,10.943l-51.705,-0l0,-69.081l51.236,-0l-0,10.989l-38.838,-0l0,17.798l34.376,0l0,11.083l-34.329,0c-0.047,6.058 -0.047,12.069 -0.047,18.268Z" style="fill:#154d8e;"/><path d="M808.64,32.957l-0,10.942l-38.838,-0l0,17.845l34.376,0l0,11.036l-34.376,0l0,18.268l39.307,0l0,10.989l-51.705,0l0,-69.033c17.001,-0.047 34.095,-0.047 51.236,-0.047Z" style="fill:#4b8ad3;"/><path d="M727.302,32.91l12.351,-0l-0,69.081l-12.304,-0l-0,-28.929l-32.685,0l-0,28.929l-12.351,-0l-0,-69.081l12.304,-0l-0,28.693l32.685,0l-0,-28.693Z" style="fill:#4b8ad3;"/><path d="M1083.65,32.957l0,69.08l-12.304,0l0,-28.975l-32.685,0l0,28.929l-12.351,-0l0,-69.081l12.304,-0l0,28.74l32.685,0l0,-28.693l12.351,-0Z" style="fill:#4b8ad3;"/><path d="M621.028,85.601l-31.512,-0c-0.751,-0 -1.127,0.141 -1.455,0.939c-2.067,4.978 -4.227,9.956 -6.34,14.934c-0.188,0.517 -0.47,0.61 -0.893,0.61l-11.928,0c0.141,-1.174 0.752,-2.113 1.174,-3.099c2.207,-5.166 4.462,-10.332 6.716,-15.497c1.737,-3.945 3.522,-7.89 5.212,-11.835c1.926,-4.461 3.851,-8.922 5.777,-13.384c1.362,-3.146 2.77,-6.246 4.132,-9.392c2.02,-4.602 4.039,-9.252 6.011,-13.854c0.047,-0.047 0.094,-0.141 0.094,-0.188c0.47,-1.972 1.597,-2.677 3.71,-2.489c2.583,0.235 5.26,0.094 7.89,0.047c0.657,0 1.033,0.188 1.268,0.799c1.878,4.414 3.804,8.875 5.729,13.29c1.644,3.804 3.381,7.608 5.025,11.411c2.019,4.603 3.992,9.252 6.011,13.854c1.691,3.804 3.381,7.608 5.025,11.412c2.16,4.978 4.274,9.956 6.434,14.887c0.563,1.315 1.268,2.583 1.691,4.038l-12.351,0c-0.47,0 -0.752,-0.14 -0.94,-0.563c-2.16,-5.213 -4.32,-10.473 -6.527,-15.685c0.094,-0.094 0.094,-0.141 0.047,-0.235Zm-16.343,-38.227c-3.945,9.205 -7.796,18.174 -11.647,27.144l23.34,-0c-3.897,-9.064 -7.748,-18.033 -11.693,-27.144Z" style="fill:#154d8e;"/><path d="M817.375,102.037c10.19,-23.34 20.287,-46.445 30.431,-69.644l10.801,0c0.563,0 0.798,0.329 0.986,0.752c1.362,3.146 2.771,6.246 4.133,9.392c1.174,2.677 2.301,5.354 3.428,8.03c2.254,5.213 4.508,10.379 6.809,15.592c1.409,3.193 2.818,6.387 4.227,9.58c1.972,4.555 3.945,9.11 5.964,13.666c1.691,3.851 3.381,7.655 5.072,11.505c0.141,0.329 0.235,0.705 0.376,1.174l-11.036,0c-1.973,0 -1.973,0 -2.724,-1.737c-2.066,-4.884 -4.086,-9.768 -6.152,-14.699l-31.371,-0c-0.798,-0 -1.221,0.188 -1.549,0.986c-2.067,4.978 -4.227,9.862 -6.293,14.84c-0.188,0.47 -0.376,0.657 -0.845,0.657c-4.086,-0.094 -8.078,-0.094 -12.257,-0.094Zm24.279,-27.519l23.387,-0c-3.898,-9.064 -7.796,-18.033 -11.741,-27.144c-3.945,9.205 -7.795,18.127 -11.646,27.144Z" style="fill:#4b8ad3;"/><path d="M35.462,96.073c-3.569,-3.616 -7.185,-7.044 -10.613,-10.942c10.66,-10.237 23.293,-16.671 37.992,-18.597c21.978,-2.911 41.044,3.523 57.34,18.55c-1.127,1.268 -2.16,2.395 -3.193,3.475c-2.255,2.349 -4.697,4.509 -6.81,7.045c-0.469,0.516 -0.798,0.469 -1.268,-0c-4.367,-4.18 -9.345,-7.467 -14.84,-9.956c-3.991,-1.785 -8.171,-3.006 -12.491,-3.851c-4.415,-0.845 -8.829,-0.892 -13.291,-0.611c-4.414,0.282 -8.781,1.268 -13.008,2.724c-4.555,1.597 -8.829,3.71 -12.774,6.434c-2.489,1.691 -4.743,3.616 -7.044,5.729Z" style="fill:#154d8e;"/><path d="M1013.3,32.91l-0,11.365l-21.744,-0l0,57.669l-12.444,-0l-0,-57.576l-21.791,0l0,-11.458l55.979,-0Z" style="fill:#4b8ad3;"/><path d="M949.76,91.048l-0,10.943l-48.606,-0l0,-69.081l12.304,-0l0,58.138l36.302,0Z" style="fill:#4b8ad3;"/><path d="M90.266,115.891c-2.301,-2.395 -4.978,-4.179 -7.936,-5.4c-2.724,-1.128 -5.589,-1.785 -8.594,-1.926c-4.696,-0.188 -9.064,0.752 -13.149,2.959c-1.832,0.986 -3.523,2.16 -5.025,3.569c-0.658,0.61 -0.986,0.516 -1.55,-0.047c-3.053,-3.194 -6.152,-6.34 -9.251,-9.486c-0.517,-0.564 -0.517,-0.893 0.046,-1.362c3.335,-3.006 6.951,-5.589 11.083,-7.373c2.771,-1.174 5.542,-2.161 8.454,-2.724c3.71,-0.704 7.373,-0.986 11.176,-0.658c3.288,0.282 6.481,0.893 9.628,1.832c2.536,0.751 4.884,1.831 7.185,3.099c3.005,1.644 5.682,3.71 8.171,6.059c0.423,0.422 0.47,0.563 0.094,0.939c-0.047,0.047 -0.047,0.047 -0.094,0.094c-3.475,3.334 -6.575,7.044 -10.238,10.425Z" style="fill:#154d8e;"/><path d="M72.562,133.596c-2.771,-2.771 -5.495,-5.495 -8.218,-8.219c-0.564,-0.516 -0.517,-0.892 0.047,-1.361c1.784,-1.456 3.803,-2.442 6.058,-2.771c3.428,-0.564 6.574,0.188 9.439,2.207c0.282,0.188 0.516,0.423 0.751,0.611c0.611,0.516 0.799,0.845 0,1.596c-2.77,2.536 -5.353,5.26 -8.077,7.937Z" style="fill:#154d8e;"/></g></svg>