<?xml version="1.0" encoding="UTF-8"?><svg id="Layer_2" xmlns="http://www.w3.org/2000/svg" viewBox="0 0 432 134.84"><defs><style>.cls-1{fill:#00827e;}</style></defs><g id="Layer_1-2"><g><path class="cls-1" d="M212.63,80.66h-44.25v54.18h-34.77V0h34.77V50.34h44.25V0h34.77V134.84h-34.77v-54.18Z"/><path class="cls-1" d="M278,0h34.77V134.84h-34.77V0Z"/><path class="cls-1" d="M343.05,0h34.77V104.52h54.18v30.32h-88.95V0Z"/><path class="cls-1" d="M67.52,0H0V134.84H34.77V29.31h28.5c8.5,0,15.71,6.72,15.78,15.22,.07,9.18-6.82,15.1-16.17,15.1h-13.47v29.52h18.11c30.32,0,46.9-20.01,46.9-44.27S97.85,0,67.52,0Z"/></g></g></svg>