<svg width="92" height="25" viewBox="0 0 92 25" fill="none" xmlns="http://www.w3.org/2000/svg">
<path fill-rule="evenodd" clip-rule="evenodd" d="M5.79609 25C7.47207 25 8.82216 24.5228 9.84637 23.5684C11.0102 22.4511 11.5922 20.9264 11.5922 18.9944V17.4581C11.5922 15.2235 10.7309 13.338 9.00838 11.8017C8.54283 11.3827 7.70484 10.8473 6.49442 10.1955C5.81937 9.82309 5.36546 9.54376 5.13268 9.35754C4.27142 8.58939 3.84078 7.66992 3.84078 6.59916V6.00559C3.84078 5.1676 4.01536 4.58566 4.36453 4.25978C4.66713 3.98045 5.14432 3.84078 5.79609 3.84078C6.47114 3.84078 6.94833 3.98045 7.22765 4.25978C7.57682 4.56238 7.7514 5.14432 7.7514 6.00559V8.13547H11.5922V6.00559C11.5922 4.07356 11.0102 2.54888 9.84637 1.43156C8.82216 0.477188 7.47207 0 5.79609 0C4.12011 0 2.77002 0.477188 1.74581 1.43156C0.581937 2.54888 0 4.07356 0 6.00559V6.59916C0 7.6932 0.221136 8.71741 0.663408 9.67179C1.10568 10.6262 1.74581 11.4758 2.5838 12.2207C3.0959 12.6629 3.89898 13.175 4.99302 13.757C5.78445 14.1993 6.27328 14.5019 6.4595 14.6648C7.32076 15.4562 7.7514 16.3873 7.7514 17.4581V18.9944C7.7514 19.8557 7.57682 20.4376 7.22765 20.7402C6.94833 21.0196 6.47114 21.1592 5.79609 21.1592C5.14432 21.1592 4.66713 21.0196 4.36453 20.7402C4.01536 20.4143 3.84078 19.8324 3.84078 18.9944V15.817H0V18.9944C0 20.9264 0.581937 22.4511 1.74581 23.5684C2.77002 24.5228 4.12011 25 5.79609 25ZM17.6635 0.279328H13.8227V24.7207H17.6635V0.279328ZM43.8144 24.7207H46.049V0.279328H42.2082V12.6397L36.3423 0.279328H34.1077V24.7207H37.9485V12.3254L43.8144 24.7207ZM52.5456 4.12011V10.2654H56.8752V14.1061H52.5456V20.8799H58.8305V24.7207H48.7048V0.279328H58.8305V4.12011H52.5456ZM67.9227 4.12011H71.8333V0.279328H60.1713V4.12011H64.0819V24.7207H67.9227V4.12011ZM77.3689 0.279328H73.5281V24.7207H77.3689V0.279328ZM89.7093 23.5684C88.6851 24.5228 87.335 25 85.659 25C84.0296 25 82.6795 24.5228 81.6087 23.5684C80.4448 22.4046 79.8629 20.8799 79.8629 18.9944V6.00559C79.8629 4.12011 80.4448 2.59544 81.6087 1.43156C82.6795 0.477188 84.0296 0 85.659 0C87.335 0 88.6851 0.477188 89.7093 1.43156C90.8732 2.54888 91.4551 4.07356 91.4551 6.00559V8.17039H87.6143V6.00559C87.6143 5.14432 87.4514 4.56238 87.1255 4.25978C86.8229 3.98045 86.334 3.84078 85.659 3.84078C85.0072 3.84078 84.53 3.98045 84.2274 4.25978C83.8783 4.58566 83.7037 5.1676 83.7037 6.00559V18.9944C83.7037 19.8324 83.8783 20.4143 84.2274 20.7402C84.53 21.0196 85.0072 21.1592 85.659 21.1592C86.334 21.1592 86.8229 21.0196 87.1255 20.7402C87.4514 20.4376 87.6143 19.8557 87.6143 18.9944V15.852H91.4551V18.9944C91.4551 20.9264 90.8732 22.4511 89.7093 23.5684ZM30.0039 23.5684C28.9797 24.5228 27.6296 25 25.9536 25C24.3242 25 22.9741 24.5228 21.9034 23.5684C20.7395 22.4046 20.1576 20.8799 20.1576 18.9944V6.00559C20.1576 4.12011 20.7395 2.59544 21.9034 1.43156C22.9741 0.477188 24.3242 0 25.9536 0C27.6296 0 28.9797 0.477188 30.0039 1.43156C31.1678 2.54888 31.7497 4.07356 31.7497 6.00559V8.17039H27.9089V6.00559C27.9089 5.14432 27.746 4.56238 27.4201 4.25978C27.1175 3.98045 26.6287 3.84078 25.9536 3.84078C25.3019 3.84078 24.8247 3.98045 24.5221 4.25978C24.1729 4.58566 23.9983 5.1676 23.9983 6.00559V18.9944C23.9983 19.8324 24.1729 20.4143 24.5221 20.7402C24.8247 21.0196 25.3019 21.1592 25.9536 21.1592C26.6287 21.1592 27.1175 21.0196 27.4201 20.7402C27.746 20.4376 27.9089 19.8557 27.9089 18.9944V14.4204H24.4912L26.6682 10.5796H31.7497V18.9944C31.7497 20.9264 31.1678 22.4511 30.0039 23.5684Z" fill="#222222"/>
</svg>
